<?xml version="1.0" standalone="no"?><!-- Generator: Gravit.io --><svg xmlns="http://www.w3.org/2000/svg" xmlns:xlink="http://www.w3.org/1999/xlink" style="isolation:isolate" viewBox="156 6257 27 27" width="27" height="27"><path d=" M 169.5 6257.001 C 162.045 6257.001 156 6263.044 156 6270.5 C 156 6277.956 162.047 6284 169.5 6284 C 176.955 6284 183 6277.955 183 6270.5 C 183 6263.045 176.955 6257 169.5 6257 L 169.5 6257.001 Z  M 172.311 6277.924 C 171.616 6278.196 171.062 6278.406 170.647 6278.549 C 170.182 6278.699 169.694 6278.772 169.205 6278.763 C 168.366 6278.763 167.71 6278.557 167.241 6278.147 C 166.777 6277.741 166.545 6277.219 166.545 6276.584 C 166.545 6276.339 166.563 6276.089 166.598 6275.835 C 166.629 6275.575 166.688 6275.29 166.763 6274.964 L 167.634 6271.893 C 167.71 6271.598 167.777 6271.322 167.83 6271.059 C 167.88 6270.82 167.905 6270.578 167.906 6270.334 C 167.906 6269.946 167.826 6269.669 167.666 6269.518 C 167.5 6269.362 167.192 6269.285 166.737 6269.285 C 166.503 6269.288 166.27 6269.322 166.045 6269.388 C 165.841 6269.449 165.638 6269.516 165.437 6269.589 L 165.669 6268.643 C 166.206 6268.423 166.751 6268.225 167.304 6268.049 C 167.779 6267.89 168.276 6267.806 168.778 6267.8 C 169.612 6267.8 170.259 6268.005 170.709 6268.406 C 171.161 6268.809 171.388 6269.334 171.388 6269.978 C 171.388 6270.111 171.375 6270.348 171.343 6270.683 C 171.316 6270.997 171.258 6271.309 171.17 6271.612 L 170.303 6274.675 C 170.226 6274.951 170.162 6275.231 170.111 6275.514 C 170.066 6275.749 170.04 6275.988 170.031 6276.228 C 170.031 6276.633 170.121 6276.915 170.303 6277.062 C 170.482 6277.211 170.799 6277.281 171.25 6277.281 C 171.46 6277.281 171.695 6277.245 171.964 6277.174 C 172.16 6277.123 172.353 6277.057 172.54 6276.977 L 172.311 6277.924 Z  M 172.156 6265.491 C 171.763 6265.862 171.241 6266.064 170.701 6266.053 C 170.134 6266.053 169.643 6265.866 169.237 6265.491 C 168.846 6265.148 168.624 6264.651 168.629 6264.13 C 168.629 6263.599 168.835 6263.139 169.237 6262.759 C 169.632 6262.385 170.157 6262.182 170.7 6262.192 C 171.268 6262.192 171.755 6262.38 172.156 6262.76 C 172.563 6263.139 172.763 6263.599 172.763 6264.13 C 172.763 6264.661 172.563 6265.116 172.157 6265.491 L 172.156 6265.491 Z " fill="rgb(185,185,185)"/></svg>