<?xml version="1.0" standalone="no"?><!-- Generator: Gravit.io --><svg xmlns="http://www.w3.org/2000/svg" xmlns:xlink="http://www.w3.org/1999/xlink" style="isolation:isolate" viewBox="241 -67 100 100" width="100" height="100"><g><path d="M 250.5 -67 L 331.5 -67 C 336.743 -67 341 -62.743 341 -57.5 L 341 23.5 C 341 28.743 336.743 33 331.5 33 L 250.5 33 C 245.257 33 241 28.743 241 23.5 L 241 -57.5 C 241 -62.743 245.257 -67 250.5 -67 Z" style="stroke:none;fill:#2E2E2E;stroke-miterlimit:10;"/><g><path d=" M 321 -2 C 296.164 -2 276 -22.164 276 -47 L 321 -47 L 321 -2 Z " fill="rgb(116,116,116)"/><path d=" M 321 -32 C 312.721 -32 306 -38.721 306 -47 L 321 -47 L 321 -32 Z " fill="rgb(46,46,46)"/><rect x="281" y="-72" width="20" height="30" transform="matrix(0,1,-1,0,234,-348)" fill="rgb(116,116,116)"/><rect x="316" y="-27" width="30" height="20" transform="matrix(0,1,-1,0,314,-348)" fill="rgb(116,116,116)"/><path d=" M 321 -7 C 298.923 -7 281 -24.923 281 -47 L 321 -47 L 321 -7 Z " fill="rgb(84,183,183)"/><path d=" M 321 -27 C 309.962 -27 301 -35.962 301 -47 L 321 -47 L 321 -27 Z " fill="rgb(116,116,116)"/><path d=" M 321 -32 C 312.721 -32 306 -38.721 306 -47 L 321 -47 L 321 -32 Z " fill="rgb(46,46,46)"/><rect x="281" y="-67" width="20" height="20" transform="matrix(0,1,-1,0,234,-348)" fill="rgb(84,183,183)"/><rect x="321" y="-27" width="20" height="20" transform="matrix(0,1,-1,0,314,-348)" fill="rgb(84,183,183)"/></g></g></svg>