<?xml version="1.0" standalone="no"?><!-- Generator: Gravit.io --><svg xmlns="http://www.w3.org/2000/svg" xmlns:xlink="http://www.w3.org/1999/xlink" style="isolation:isolate" viewBox="661 -67 100 100" width="100" height="100"><g><path d="M 670.5 -67 L 751.5 -67 C 756.743 -67 761 -62.743 761 -57.5 L 761 23.5 C 761 28.743 756.743 33 751.5 33 L 670.5 33 C 665.257 33 661 28.743 661 23.5 L 661 -57.5 C 661 -62.743 665.257 -67 670.5 -67 Z" style="stroke:none;fill:#2E2E2E;stroke-miterlimit:10;"/><g><path d=" M 741 -2 C 716.164 -2 696 -22.164 696 -47 L 741 -47 L 741 -2 Z " fill="rgb(116,116,116)"/><path d=" M 741 -32 C 732.721 -32 726 -38.721 726 -47 L 741 -47 L 741 -32 Z " fill="rgb(46,46,46)"/><rect x="701" y="-72" width="20" height="30" transform="matrix(0,1,-1,0,654,-768)" fill="rgb(116,116,116)"/><rect x="736" y="-27" width="30" height="20" transform="matrix(0,1,-1,0,734,-768)" fill="rgb(116,116,116)"/></g></g></svg>