<?xml version="1.0" standalone="no"?><!-- Generator: Gravit.io --><svg xmlns="http://www.w3.org/2000/svg" xmlns:xlink="http://www.w3.org/1999/xlink" style="isolation:isolate" viewBox="241 5717 100 100" width="100" height="100"><g><path d="M 250.5 5717 L 331.5 5717 C 336.743 5717 341 5721.257 341 5726.5 L 341 5807.5 C 341 5812.743 336.743 5817 331.5 5817 L 250.5 5817 C 245.257 5817 241 5812.743 241 5807.5 L 241 5726.5 C 241 5721.257 245.257 5717 250.5 5717 Z" style="stroke:none;fill:#2E2E2E;stroke-miterlimit:10;"/><rect x="276" y="5717" width="30" height="100" transform="matrix(0,-1,1,0,-5476,6058)" fill="rgb(116,116,116)"/><rect x="258.5" y="5734.5" width="17.5" height="17.5" transform="matrix(0,-1,1,0,-5476,6010.5)" fill="rgb(116,116,116)"/><rect x="306" y="5734.5" width="17.5" height="17.5" transform="matrix(0,-1,1,0,-5428.5,6058)" fill="rgb(116,116,116)"/><rect x="306" y="5782" width="17.5" height="17.5" transform="matrix(0,-1,1,0,-5476,6105.5)" fill="rgb(116,116,116)"/><rect x="258.5" y="5782" width="17.5" height="17.5" transform="matrix(0,-1,1,0,-5523.5,6058)" fill="rgb(116,116,116)"/><rect x="276" y="5717" width="30" height="100" transform="matrix(1,0,0,1,0,0)" fill="rgb(116,116,116)"/><circle vector-effect="non-scaling-stroke" cx="258.4999999999993" cy="5734.500000000004" r="17.5" fill="rgb(46,46,46)"/><circle vector-effect="non-scaling-stroke" cx="323.49999999999926" cy="5734.500000000004" r="17.5" fill="rgb(46,46,46)"/><circle vector-effect="non-scaling-stroke" cx="258.4999999999992" cy="5799.500000000002" r="17.5" fill="rgb(46,46,46)"/><circle vector-effect="non-scaling-stroke" cx="323.4999999999993" cy="5799.500000000001" r="17.5" fill="rgb(46,46,46)"/><rect x="278" y="5754" width="26" height="26" transform="matrix(1,0,0,1,0,0)" fill="rgb(185,185,18)"/><path d=" M 291 5742 C 277.194 5742 266 5753.194 266 5767 C 266 5780.806 277.194 5792 291 5792 C 304.806 5792 316 5780.806 316 5767 C 316 5753.194 304.819 5742 291 5742 L 291 5742 Z  M 289.485 5756.263 C 289.485 5755.558 290.06 5754.996 290.752 5754.996 L 291.261 5754.996 C 291.967 5754.996 292.528 5755.571 292.528 5756.263 L 292.528 5764.035 C 292.528 5764.74 291.953 5765.302 291.261 5765.302 L 290.752 5765.302 C 290.052 5765.302 289.485 5764.735 289.485 5764.035 L 289.485 5756.263 L 289.485 5756.263 Z  M 291 5777.724 C 285.201 5777.724 280.485 5773.008 280.485 5767.209 C 280.485 5763.33 282.614 5759.79 286.024 5757.948 C 286.546 5757.674 287.199 5757.87 287.473 5758.379 C 287.748 5758.902 287.552 5759.555 287.042 5759.829 C 284.323 5761.288 282.627 5764.123 282.627 5767.209 C 282.629 5771.303 285.593 5774.794 289.632 5775.461 C 293.671 5776.128 297.6 5773.774 298.917 5769.898 C 300.234 5766.022 298.554 5761.762 294.945 5759.829 C 294.693 5759.696 294.505 5759.468 294.424 5759.195 C 294.343 5758.922 294.375 5758.628 294.514 5758.379 C 294.788 5757.857 295.441 5757.661 295.963 5757.948 C 299.377 5759.776 301.506 5763.337 301.502 5767.209 C 301.515 5773.008 296.799 5777.724 291 5777.724 Z " fill="rgb(46,46,46)"/></g></svg>