<?xml version="1.0" standalone="no"?><!-- Generator: Gravit.io --><svg xmlns="http://www.w3.org/2000/svg" xmlns:xlink="http://www.w3.org/1999/xlink" style="isolation:isolate" viewBox="661 -172 100 100" width="100" height="100"><g><path d="M 670.5 -172 L 751.5 -172 C 756.743 -172 761 -167.743 761 -162.5 L 761 -81.5 C 761 -76.257 756.743 -72 751.5 -72 L 670.5 -72 C 665.257 -72 661 -76.257 661 -81.5 L 661 -162.5 C 661 -167.743 665.257 -172 670.5 -172 Z" style="stroke:none;fill:#2E2E2E;stroke-miterlimit:10;"/><rect x="696" y="-172" width="30" height="33" transform="matrix(1,0,0,1,0,0)" fill="rgb(116,116,116)"/><rect x="696" y="-105" width="30" height="33" transform="matrix(1,0,0,1,0,0)" fill="rgb(116,116,116)"/><rect x="696" y="-172" width="30" height="100" transform="matrix(0,-1,1,0,833,589)" fill="rgb(116,116,116)"/></g></svg>