<?xml version="1.0" standalone="no"?><!-- Generator: Gravit.io --><svg xmlns="http://www.w3.org/2000/svg" xmlns:xlink="http://www.w3.org/1999/xlink" style="isolation:isolate" viewBox="241 6137 100 100" width="100" height="100"><g><path d="M 250.5 6137 L 331.5 6137 C 336.743 6137 341 6141.257 341 6146.5 L 341 6227.5 C 341 6232.743 336.743 6237 331.5 6237 L 250.5 6237 C 245.257 6237 241 6232.743 241 6227.5 L 241 6146.5 C 241 6141.257 245.257 6137 250.5 6137 Z" style="stroke:none;fill:#2E2E2E;stroke-miterlimit:10;"/><g><rect x="276" y="6137" width="30" height="100" transform="matrix(0,-1,1,0,-5896,6478)" fill="rgb(116,116,116)"/><rect x="258.5" y="6154.5" width="17.5" height="17.5" transform="matrix(0,-1,1,0,-5896,6430.5)" fill="rgb(116,116,116)"/><rect x="306" y="6154.5" width="17.5" height="17.5" transform="matrix(0,-1,1,0,-5848.5,6478)" fill="rgb(116,116,116)"/><rect x="306" y="6202" width="17.5" height="17.5" transform="matrix(0,-1,1,0,-5896,6525.5)" fill="rgb(116,116,116)"/><rect x="258.5" y="6202" width="17.5" height="17.5" transform="matrix(0,-1,1,0,-5943.5,6478)" fill="rgb(116,116,116)"/><rect x="281" y="6137" width="20" height="100" transform="matrix(0,-1,1,0,-5896,6478)" fill="rgb(84,183,183)"/></g><g><rect x="276" y="6137" width="30" height="100" transform="matrix(-1,0,0,-1,582,12374)" fill="rgb(116,116,116)"/><rect x="281" y="6137" width="20" height="100" transform="matrix(-1,0,0,-1,582,12374)" fill="rgb(84,183,183)"/></g><circle vector-effect="non-scaling-stroke" cx="258.4999999999995" cy="6154.499999999993" r="17.5" fill="rgb(46,46,46)"/><circle vector-effect="non-scaling-stroke" cx="323.5" cy="6154.500000000006" r="17.5" fill="rgb(46,46,46)"/><circle vector-effect="non-scaling-stroke" cx="323.5" cy="6219.499999999993" r="17.5" fill="rgb(46,46,46)"/><circle vector-effect="non-scaling-stroke" cx="258.4999999999991" cy="6219.500000000007" r="17.5" fill="rgb(46,46,46)"/><circle vector-effect="non-scaling-stroke" cx="290.9999999999991" cy="6187.000000000006" r="27" fill="rgb(84,183,183)"/><rect x="278" y="6174" width="26" height="26" transform="matrix(1,0,0,1,0,0)" fill="rgb(255,255,255)"/><path d=" M 291 6162 C 277.194 6162 266 6173.194 266 6187 C 266 6200.806 277.194 6212 291 6212 C 304.806 6212 316 6200.806 316 6187 C 316 6173.194 304.819 6162 291 6162 L 291 6162 Z  M 289.485 6176.263 C 289.485 6175.558 290.06 6174.996 290.752 6174.996 L 291.261 6174.996 C 291.967 6174.996 292.528 6175.571 292.528 6176.263 L 292.528 6184.035 C 292.528 6184.74 291.953 6185.302 291.261 6185.302 L 290.752 6185.302 C 290.052 6185.302 289.485 6184.735 289.485 6184.035 L 289.485 6176.263 L 289.485 6176.263 Z  M 291 6197.724 C 285.201 6197.724 280.485 6193.008 280.485 6187.209 C 280.485 6183.33 282.614 6179.79 286.024 6177.948 C 286.546 6177.674 287.199 6177.87 287.473 6178.379 C 287.748 6178.902 287.552 6179.555 287.042 6179.829 C 284.323 6181.288 282.627 6184.123 282.627 6187.209 C 282.629 6191.303 285.593 6194.794 289.632 6195.461 C 293.671 6196.128 297.6 6193.774 298.917 6189.898 C 300.234 6186.022 298.554 6181.762 294.945 6179.829 C 294.693 6179.696 294.505 6179.468 294.424 6179.195 C 294.343 6178.922 294.375 6178.628 294.514 6178.379 C 294.788 6177.857 295.441 6177.661 295.963 6177.948 C 299.377 6179.776 301.506 6183.337 301.502 6187.209 C 301.515 6193.008 296.799 6197.724 291 6197.724 Z " fill="rgb(208,208,24)"/></g></svg>