<?xml version="1.0" standalone="no"?><!-- Generator: Gravit.io --><svg xmlns="http://www.w3.org/2000/svg" xmlns:xlink="http://www.w3.org/1999/xlink" style="isolation:isolate" viewBox="871 -67 100 100" width="100" height="100"><g><path d="M 880.5 -67 L 961.5 -67 C 966.743 -67 971 -62.743 971 -57.5 L 971 23.5 C 971 28.743 966.743 33 961.5 33 L 880.5 33 C 875.257 33 871 28.743 871 23.5 L 871 -57.5 C 871 -62.743 875.257 -67 880.5 -67 Z" style="stroke:none;fill:#2E2E2E;stroke-miterlimit:10;"/><g><path d=" M 936 -47 C 936 -22.164 915.836 -2 891 -2 L 891 -47 L 936 -47 Z " fill="rgb(116,116,116)"/><path d=" M 906 -47 C 906 -38.721 899.279 -32 891 -32 L 891 -47 L 906 -47 Z " fill="rgb(46,46,46)"/><rect x="871" y="-32" width="20" height="30" transform="matrix(1,0,0,1,0,0)" fill="rgb(116,116,116)"/><rect x="906" y="-67" width="30" height="20" transform="matrix(1,0,0,1,0,0)" fill="rgb(116,116,116)"/></g></g></svg>