<?xml version="1.0" standalone="no"?><!-- Generator: Gravit.io --><svg xmlns="http://www.w3.org/2000/svg" xmlns:xlink="http://www.w3.org/1999/xlink" style="isolation:isolate" viewBox="451 -67 100 100" width="100" height="100"><g><path d="M 460.5 -67 L 541.5 -67 C 546.743 -67 551 -62.743 551 -57.5 L 551 23.5 C 551 28.743 546.743 33 541.5 33 L 460.5 33 C 455.257 33 451 28.743 451 23.5 L 451 -57.5 C 451 -62.743 455.257 -67 460.5 -67 Z" style="stroke:none;fill:#2E2E2E;stroke-miterlimit:10;"/><g><path d=" M 516 -47 C 516 -22.164 495.836 -2 471 -2 L 471 -47 L 516 -47 Z " fill="rgb(116,116,116)"/><rect x="451" y="-32" width="20" height="30" transform="matrix(1,0,0,1,0,0)" fill="rgb(116,116,116)"/><rect x="486" y="-67" width="30" height="20" transform="matrix(1,0,0,1,0,0)" fill="rgb(116,116,116)"/><path d=" M 511 -47 C 511 -24.923 493.077 -7 471 -7 L 471 -47 L 511 -47 Z " fill="rgb(84,183,183)"/><path d=" M 491 -47 C 491 -35.962 482.038 -27 471 -27 L 471 -47 L 491 -47 Z " fill="rgb(116,116,116)"/><path d=" M 486 -47 C 486 -38.721 479.279 -32 471 -32 L 471 -47 L 486 -47 Z " fill="rgb(46,46,46)"/><rect x="451" y="-27" width="20" height="20" transform="matrix(1,0,0,1,0,0)" fill="rgb(84,183,183)"/><rect x="491" y="-67" width="20" height="20" transform="matrix(1,0,0,1,0,0)" fill="rgb(84,183,183)"/><path d=" M 486 -47 C 486 -38.721 479.279 -32 471 -32 L 471 -47 L 486 -47 Z " fill="rgb(46,46,46)"/></g></g></svg>