<?xml version="1.0" standalone="no"?><!-- Generator: Gravit.io --><svg xmlns="http://www.w3.org/2000/svg" xmlns:xlink="http://www.w3.org/1999/xlink" style="isolation:isolate" viewBox="871 3425 100 100" width="100" height="100"><g><path d="M 871 3515.5 L 871 3434.5 C 871 3429.257 875.257 3425 880.5 3425 L 961.5 3425 C 966.743 3425 971 3429.257 971 3434.5 L 971 3515.5 C 971 3520.743 966.743 3525 961.5 3525 L 880.5 3525 C 875.257 3525 871 3520.743 871 3515.5 Z" style="stroke:none;fill:#2E2E2E;stroke-miterlimit:10;"/><g><path d=" M 935.14 3477.478 C 934.785 3477.478 934.432 3477.431 934.094 3477.337 L 905.497 3469.84 C 903.571 3469.329 902.336 3467.521 902.609 3465.612 C 902.773 3464.527 903.409 3463.562 904.357 3462.959 C 905.305 3462.357 906.476 3462.174 907.573 3462.458 L 936.171 3469.962 C 938.097 3470.472 939.332 3472.281 939.059 3474.19 C 938.772 3476.069 937.108 3477.465 935.14 3477.478 Z " fill="rgb(31,60,85)"/><path d=" M 906.529 3463.178 C 906.798 3463.178 907.076 3463.212 907.339 3463.285 L 935.936 3470.783 C 937.432 3471.18 938.392 3472.587 938.178 3474.07 C 937.958 3475.529 936.667 3476.613 935.14 3476.622 C 934.861 3476.622 934.592 3476.588 934.322 3476.516 L 905.726 3469.011 C 904.229 3468.617 903.268 3467.212 903.481 3465.73 C 903.703 3464.269 904.998 3463.183 906.529 3463.178 Z  M 906.529 3461.467 C 904.102 3461.473 902.054 3463.209 901.734 3465.53 C 901.414 3467.851 902.921 3470.043 905.261 3470.661 L 933.858 3478.165 C 936.443 3478.843 939.108 3477.37 939.809 3474.875 C 940.511 3472.381 938.985 3469.809 936.4 3469.132 L 907.801 3461.633 C 907.386 3461.522 906.957 3461.466 906.527 3461.467 L 906.529 3461.467 Z " fill="rgb(31,60,85)"/><path d=" M 935.14 3465.511 C 934.709 3465.511 934.281 3465.443 933.872 3465.311 L 905.78 3456.211 C 903.887 3455.595 902.762 3453.717 903.157 3451.827 C 903.385 3450.753 904.078 3449.825 905.061 3449.277 C 906.044 3448.729 907.224 3448.614 908.301 3448.96 L 936.4 3458.06 C 937.975 3458.053 939.404 3458.946 940.042 3460.335 C 940.681 3461.724 940.406 3463.346 939.344 3464.468 C 938.282 3465.589 936.632 3465.998 935.141 3465.509 L 935.14 3465.511 Z " fill="rgb(31,60,85)"/><path d=" M 907.034 3449.615 C 907.367 3449.615 907.698 3449.668 908.017 3449.769 L 936.115 3458.869 C 937.726 3459.391 938.595 3461.075 938.054 3462.63 C 937.513 3464.186 935.768 3465.024 934.156 3464.502 L 906.057 3455.402 C 904.587 3454.922 903.715 3453.462 904.022 3451.994 C 904.317 3450.614 905.575 3449.621 907.035 3449.617 M 907.035 3447.906 C 904.729 3447.909 902.743 3449.478 902.285 3451.659 C 901.8 3453.972 903.178 3456.27 905.497 3457.018 L 933.596 3466.118 C 934.108 3466.286 934.627 3466.366 935.138 3466.366 C 937.512 3466.359 939.532 3464.696 939.914 3462.435 C 940.295 3460.174 938.926 3457.979 936.676 3457.246 L 908.585 3448.146 C 908.085 3447.985 907.561 3447.904 907.034 3447.906 L 907.035 3447.906 Z  M 926.325 3499.868 C 926.324 3501.702 925.31 3503.397 923.663 3504.313 C 922.017 3505.23 919.989 3505.229 918.344 3504.311 C 916.698 3503.394 915.685 3501.699 915.686 3499.865 C 915.687 3497.03 918.069 3494.732 921.007 3494.733 C 923.945 3494.734 926.326 3497.033 926.325 3499.868 L 926.325 3499.868 Z " fill="rgb(11,36,62)"/><path d=" M 913.917 3500.724 C 912.448 3500.724 911.258 3499.575 911.258 3498.158 L 911.258 3490.461 L 930.756 3490.461 L 930.756 3498.158 C 930.756 3499.575 929.566 3500.724 928.097 3500.724 L 913.917 3500.724 Z " fill="rgb(223,240,254)"/><path d=" M 929.87 3491.316 L 929.87 3498.158 C 929.87 3499.099 929.072 3499.868 928.097 3499.868 L 913.917 3499.868 C 912.942 3499.868 912.144 3499.099 912.144 3498.158 L 912.144 3491.316 L 929.87 3491.316 Z  M 931.642 3489.605 L 910.371 3489.605 L 910.371 3498.158 C 910.371 3500.047 911.959 3501.579 913.917 3501.579 L 928.097 3501.579 C 930.055 3501.579 931.642 3500.047 931.642 3498.158 L 931.642 3489.605 Z " fill="rgb(71,136,199)"/><path d=" M 925.438 3476.776 L 930.756 3476.776 L 930.756 3485.329 L 925.438 3485.329 L 925.438 3476.776 Z " fill="rgb(31,60,85)"/><path d=" M 929.87 3477.632 L 929.87 3484.474 L 926.325 3484.474 L 926.325 3477.632 L 929.87 3477.632 Z  M 931.642 3475.921 L 924.552 3475.921 L 924.552 3486.184 L 931.642 3486.184 L 931.642 3475.921 Z " fill="rgb(31,60,85)"/><path d=" M 911.258 3485.329 L 911.258 3481.213 L 906.95 3481.846 C 906.75 3481.881 906.55 3481.894 906.348 3481.894 C 904.208 3481.88 902.462 3480.236 902.395 3478.172 C 902.341 3476.246 903.781 3474.582 905.754 3474.289 L 935.049 3469.968 C 935.257 3469.934 935.457 3469.921 935.659 3469.921 C 937.784 3469.921 939.557 3471.592 939.612 3473.643 C 939.665 3475.57 938.223 3477.235 936.247 3477.526 L 916.575 3480.432 L 916.575 3485.329 L 911.258 3485.329 Z " fill="rgb(31,60,85)"/><path d=" M 935.659 3470.776 C 937.307 3470.776 938.685 3472.072 938.726 3473.663 C 938.766 3475.16 937.648 3476.453 936.115 3476.682 L 917.192 3479.476 L 915.689 3479.696 L 915.689 3484.474 L 912.144 3484.474 L 912.144 3480.218 L 910.102 3480.517 L 906.819 3481.006 C 906.66 3481.025 906.5 3481.041 906.348 3481.041 C 904.688 3481.027 903.333 3479.754 903.274 3478.153 C 903.233 3476.654 904.355 3475.359 905.892 3475.132 L 935.18 3470.81 C 935.339 3470.789 935.499 3470.778 935.659 3470.776 Z  M 935.659 3469.065 C 935.411 3469.067 935.164 3469.085 934.918 3469.118 L 905.621 3473.443 C 903.205 3473.801 901.441 3475.835 901.502 3478.193 C 901.54 3479.536 902.174 3480.799 903.243 3481.66 C 904.312 3482.522 905.712 3482.899 907.089 3482.696 L 910.371 3482.209 L 910.371 3486.184 L 917.462 3486.184 L 917.462 3481.166 L 936.386 3478.374 C 938.803 3478.014 940.566 3475.975 940.498 3473.615 C 940.422 3471.087 938.28 3469.073 935.659 3469.065 Z " fill="rgb(11,36,62)"/><path d=" M 906.348 3456.236 C 904.208 3456.223 902.462 3454.579 902.395 3452.514 C 902.341 3450.588 903.781 3448.924 905.754 3448.631 L 919.982 3446.534 C 925.224 3444.957 927.161 3442.439 927.847 3441.09 C 930.534 3442.099 935.402 3444.557 936.012 3447.697 L 936.026 3448.399 L 936.045 3448.573 C 936.095 3450.438 934.654 3452.107 932.681 3452.394 L 906.95 3456.19 C 906.75 3456.224 906.55 3456.236 906.348 3456.236 Z " fill="rgb(31,60,85)"/><path d=" M 928.25 3442.172 C 930.714 3443.2 934.439 3445.233 935.092 3447.629 L 935.14 3448.44 L 935.159 3448.619 C 935.15 3450.081 934.046 3451.322 932.55 3451.553 L 906.819 3455.349 C 906.66 3455.367 906.5 3455.383 906.348 3455.383 C 904.684 3455.369 903.328 3454.091 903.274 3452.487 C 903.239 3450.99 904.359 3449.701 905.892 3449.473 L 920.114 3447.376 L 920.252 3447.355 L 920.376 3447.314 C 925.057 3445.898 927.246 3443.727 928.25 3442.171 M 927.335 3440 C 927.335 3440 926.582 3443.649 919.851 3445.686 L 905.621 3447.785 C 903.205 3448.143 901.441 3450.177 901.502 3452.535 C 901.54 3453.878 902.174 3455.141 903.243 3456.002 C 904.312 3456.864 905.712 3457.241 907.089 3457.039 L 932.812 3453.236 C 935.229 3452.88 936.995 3450.845 936.932 3448.486 C 936.925 3448.433 936.912 3448.385 936.912 3448.339 L 936.96 3448.346 C 936.96 3443.088 927.335 3440 927.335 3440 Z " fill="rgb(11,36,62)"/><path d=" M 908.599 3490.461 C 906.152 3490.459 904.169 3488.545 904.167 3486.184 L 904.167 3485.329 L 937.846 3485.329 L 937.846 3486.184 C 937.846 3488.543 935.859 3490.461 933.415 3490.461 L 908.599 3490.461 Z " fill="rgb(223,240,254)"/><path d=" M 936.96 3486.184 C 936.96 3488.069 935.368 3489.605 933.415 3489.605 L 908.599 3489.605 C 906.646 3489.605 905.054 3488.069 905.054 3486.184 L 936.96 3486.184 Z  M 938.733 3484.474 L 903.281 3484.474 L 903.281 3486.184 C 903.281 3489.018 905.662 3491.316 908.599 3491.316 L 933.415 3491.316 C 936.352 3491.316 938.733 3489.018 938.733 3486.184 L 938.733 3484.474 Z  M 930.756 3498.158 L 920.121 3498.158 C 919.885 3498.159 919.659 3498.069 919.493 3497.908 C 919.326 3497.748 919.233 3497.53 919.234 3497.303 C 919.234 3496.829 919.63 3496.447 920.121 3496.447 L 930.756 3496.447 C 931.246 3496.447 931.642 3496.83 931.642 3497.303 C 931.642 3497.775 931.246 3498.158 930.756 3498.158 Z  M 914.803 3498.158 L 911.258 3498.158 C 911.022 3498.159 910.796 3498.069 910.63 3497.908 C 910.464 3497.748 910.371 3497.53 910.371 3497.303 C 910.371 3496.829 910.767 3496.447 911.258 3496.447 L 914.803 3496.447 C 915.292 3496.447 915.689 3496.83 915.689 3497.303 C 915.689 3497.775 915.292 3498.158 914.803 3498.158 Z  M 930.756 3494.737 L 920.121 3494.737 C 919.885 3494.738 919.659 3494.648 919.493 3494.487 C 919.326 3494.327 919.233 3494.109 919.234 3493.882 C 919.234 3493.408 919.63 3493.026 920.121 3493.026 L 930.756 3493.026 C 931.246 3493.026 931.642 3493.409 931.642 3493.882 C 931.642 3494.354 931.246 3494.737 930.756 3494.737 Z  M 914.803 3494.737 L 911.258 3494.737 C 911.022 3494.738 910.796 3494.648 910.63 3494.487 C 910.464 3494.327 910.371 3494.109 910.371 3493.882 C 910.371 3493.408 910.767 3493.026 911.258 3493.026 L 914.803 3493.026 C 915.292 3493.026 915.689 3493.409 915.689 3493.882 C 915.689 3494.354 915.292 3494.737 914.803 3494.737 Z " fill="rgb(71,136,199)"/><path d=" M 906.348 3469.921 C 904.208 3469.907 902.462 3468.263 902.395 3466.198 C 902.341 3464.272 903.781 3462.609 905.754 3462.316 L 935.049 3457.995 C 935.257 3457.961 935.457 3457.947 935.659 3457.947 C 937.784 3457.947 939.557 3459.618 939.612 3461.669 C 939.665 3463.597 938.223 3465.261 936.247 3465.552 L 906.95 3469.874 C 906.75 3469.909 906.55 3469.921 906.348 3469.921 Z " fill="rgb(31,60,85)"/><path d=" M 935.659 3458.802 C 937.307 3458.802 938.685 3460.099 938.726 3461.689 C 938.766 3463.186 937.648 3464.479 936.115 3464.709 L 906.819 3469.033 C 906.66 3469.052 906.5 3469.067 906.348 3469.067 C 904.688 3469.053 903.333 3467.781 903.274 3466.18 C 903.233 3464.68 904.355 3463.385 905.892 3463.159 L 935.18 3458.836 C 935.339 3458.815 935.499 3458.804 935.659 3458.802 Z  M 935.659 3457.092 C 935.411 3457.093 935.164 3457.111 934.918 3457.145 L 905.621 3461.469 C 903.205 3461.827 901.441 3463.861 901.502 3466.219 C 901.54 3467.562 902.174 3468.825 903.243 3469.686 C 904.312 3470.548 905.712 3470.925 907.089 3470.723 L 936.386 3466.4 C 938.803 3466.041 940.566 3464.001 940.498 3461.642 C 940.422 3459.113 938.28 3457.1 935.659 3457.092 Z " fill="rgb(11,36,62)"/><polygon points="921,3505,936,3525,906,3525" fill="rgb(116,116,116)"/></g></g></svg>