<?xml version="1.0" standalone="no"?><!-- Generator: Gravit.io --><svg xmlns="http://www.w3.org/2000/svg" xmlns:xlink="http://www.w3.org/1999/xlink" style="isolation:isolate" viewBox="871 3530 100 100" width="100" height="100"><g><g><path d="M 871 3620.5 L 871 3539.5 C 871 3534.257 875.257 3530 880.5 3530 L 961.5 3530 C 966.743 3530 971 3534.257 971 3539.5 L 971 3620.5 C 971 3625.743 966.743 3630 961.5 3630 L 880.5 3630 C 875.257 3630 871 3625.743 871 3620.5 Z" style="stroke:none;fill:#2E2E2E;stroke-miterlimit:10;"/><g><path d=" M 935.14 3582.478 C 934.785 3582.478 934.432 3582.431 934.094 3582.337 L 905.497 3574.84 C 903.571 3574.329 902.336 3572.521 902.609 3570.612 C 902.773 3569.527 903.409 3568.562 904.357 3567.959 C 905.305 3567.357 906.476 3567.174 907.573 3567.458 L 936.171 3574.962 C 938.097 3575.472 939.332 3577.281 939.059 3579.19 C 938.772 3581.069 937.108 3582.465 935.14 3582.478 Z " fill="rgb(182,220,254)"/><path d=" M 906.529 3568.178 C 906.798 3568.178 907.076 3568.212 907.339 3568.285 L 935.936 3575.783 C 937.432 3576.18 938.392 3577.587 938.178 3579.07 C 937.958 3580.529 936.667 3581.613 935.14 3581.622 C 934.861 3581.622 934.592 3581.588 934.322 3581.516 L 905.726 3574.011 C 904.229 3573.617 903.268 3572.212 903.481 3570.73 C 903.703 3569.269 904.998 3568.183 906.529 3568.178 Z  M 906.529 3566.467 C 904.102 3566.473 902.054 3568.209 901.734 3570.53 C 901.414 3572.851 902.921 3575.043 905.261 3575.661 L 933.858 3583.165 C 936.443 3583.843 939.108 3582.37 939.809 3579.875 C 940.511 3577.381 938.985 3574.809 936.4 3574.132 L 907.801 3566.633 C 907.386 3566.522 906.957 3566.466 906.527 3566.467 L 906.529 3566.467 Z " fill="rgb(31,60,85)"/><path d=" M 935.14 3570.511 C 934.709 3570.511 934.281 3570.443 933.872 3570.311 L 905.78 3561.211 C 903.887 3560.595 902.762 3558.717 903.157 3556.827 C 903.385 3555.753 904.078 3554.825 905.061 3554.277 C 906.044 3553.729 907.224 3553.614 908.301 3553.96 L 936.4 3563.06 C 937.975 3563.053 939.404 3563.946 940.042 3565.335 C 940.681 3566.724 940.406 3568.346 939.344 3569.468 C 938.282 3570.589 936.632 3570.998 935.141 3570.509 L 935.14 3570.511 Z " fill="rgb(182,220,254)"/><path d=" M 907.034 3554.615 C 907.367 3554.615 907.698 3554.668 908.017 3554.769 L 936.115 3563.869 C 937.726 3564.391 938.595 3566.075 938.054 3567.63 C 937.513 3569.186 935.768 3570.024 934.156 3569.502 L 906.057 3560.402 C 904.587 3559.922 903.715 3558.462 904.022 3556.994 C 904.317 3555.614 905.575 3554.621 907.035 3554.617 M 907.035 3552.906 C 904.729 3552.909 902.743 3554.478 902.285 3556.659 C 901.8 3558.972 903.178 3561.27 905.497 3562.018 L 933.596 3571.118 C 934.108 3571.286 934.627 3571.366 935.138 3571.366 C 937.512 3571.359 939.532 3569.696 939.914 3567.435 C 940.295 3565.174 938.926 3562.979 936.676 3562.246 L 908.585 3553.146 C 908.085 3552.985 907.561 3552.904 907.034 3552.906 L 907.035 3552.906 Z  M 926.325 3604.868 C 926.324 3606.702 925.31 3608.397 923.663 3609.313 C 922.017 3610.23 919.989 3610.229 918.344 3609.311 C 916.698 3608.394 915.685 3606.699 915.686 3604.865 C 915.687 3602.03 918.069 3599.732 921.007 3599.733 C 923.945 3599.734 926.326 3602.033 926.325 3604.868 L 926.325 3604.868 Z " fill="rgb(71,136,199)"/><path d=" M 913.917 3605.724 C 912.448 3605.724 911.258 3604.575 911.258 3603.158 L 911.258 3595.461 L 930.756 3595.461 L 930.756 3603.158 C 930.756 3604.575 929.566 3605.724 928.097 3605.724 L 913.917 3605.724 Z " fill="rgb(223,240,254)"/><path d=" M 929.87 3596.316 L 929.87 3603.158 C 929.87 3604.099 929.072 3604.868 928.097 3604.868 L 913.917 3604.868 C 912.942 3604.868 912.144 3604.099 912.144 3603.158 L 912.144 3596.316 L 929.87 3596.316 Z  M 931.642 3594.605 L 910.371 3594.605 L 910.371 3603.158 C 910.371 3605.047 911.959 3606.579 913.917 3606.579 L 928.097 3606.579 C 930.055 3606.579 931.642 3605.047 931.642 3603.158 L 931.642 3594.605 Z " fill="rgb(71,136,199)"/><path d=" M 925.438 3581.776 L 930.756 3581.776 L 930.756 3590.329 L 925.438 3590.329 L 925.438 3581.776 Z " fill="rgb(182,220,254)"/><path d=" M 929.87 3582.632 L 929.87 3589.474 L 926.325 3589.474 L 926.325 3582.632 L 929.87 3582.632 Z  M 931.642 3580.921 L 924.552 3580.921 L 924.552 3591.184 L 931.642 3591.184 L 931.642 3580.921 Z " fill="rgb(71,136,199)"/><path d=" M 911.258 3590.329 L 911.258 3586.213 L 906.95 3586.846 C 906.75 3586.881 906.55 3586.894 906.348 3586.894 C 904.208 3586.88 902.462 3585.236 902.395 3583.172 C 902.341 3581.246 903.781 3579.582 905.754 3579.289 L 935.049 3574.968 C 935.257 3574.934 935.457 3574.921 935.659 3574.921 C 937.784 3574.921 939.557 3576.592 939.612 3578.643 C 939.665 3580.57 938.223 3582.235 936.247 3582.526 L 916.575 3585.432 L 916.575 3590.329 L 911.258 3590.329 Z " fill="rgb(182,220,254)"/><path d=" M 935.659 3575.776 C 937.307 3575.776 938.685 3577.072 938.726 3578.663 C 938.766 3580.16 937.648 3581.453 936.115 3581.682 L 917.192 3584.476 L 915.689 3584.696 L 915.689 3589.474 L 912.144 3589.474 L 912.144 3585.218 L 910.102 3585.517 L 906.819 3586.006 C 906.66 3586.025 906.5 3586.041 906.348 3586.041 C 904.688 3586.027 903.333 3584.754 903.274 3583.153 C 903.233 3581.654 904.355 3580.359 905.892 3580.132 L 935.18 3575.81 C 935.339 3575.789 935.499 3575.778 935.659 3575.776 Z  M 935.659 3574.065 C 935.411 3574.067 935.164 3574.085 934.918 3574.118 L 905.621 3578.443 C 903.205 3578.801 901.441 3580.835 901.502 3583.193 C 901.54 3584.536 902.174 3585.799 903.243 3586.66 C 904.312 3587.522 905.712 3587.899 907.089 3587.696 L 910.371 3587.209 L 910.371 3591.184 L 917.462 3591.184 L 917.462 3586.166 L 936.386 3583.374 C 938.803 3583.014 940.566 3580.975 940.498 3578.615 C 940.422 3576.087 938.28 3574.073 935.659 3574.065 Z " fill="rgb(71,136,199)"/><path d=" M 906.348 3561.236 C 904.208 3561.223 902.462 3559.579 902.395 3557.514 C 902.341 3555.588 903.781 3553.924 905.754 3553.631 L 919.982 3551.534 C 925.224 3549.957 927.161 3547.439 927.847 3546.09 C 930.534 3547.099 935.402 3549.557 936.012 3552.697 L 936.026 3553.399 L 936.045 3553.573 C 936.095 3555.438 934.654 3557.107 932.681 3557.394 L 906.95 3561.19 C 906.75 3561.224 906.55 3561.236 906.348 3561.236 Z " fill="rgb(182,220,254)"/><path d=" M 928.25 3547.172 C 930.714 3548.2 934.439 3550.233 935.092 3552.629 L 935.14 3553.44 L 935.159 3553.619 C 935.15 3555.081 934.046 3556.322 932.55 3556.553 L 906.819 3560.349 C 906.66 3560.367 906.5 3560.383 906.348 3560.383 C 904.684 3560.369 903.328 3559.091 903.274 3557.487 C 903.239 3555.99 904.359 3554.701 905.892 3554.473 L 920.114 3552.376 L 920.252 3552.355 L 920.376 3552.314 C 925.057 3550.898 927.246 3548.727 928.25 3547.171 M 927.335 3545 C 927.335 3545 926.582 3548.649 919.851 3550.686 L 905.621 3552.785 C 903.205 3553.143 901.441 3555.177 901.502 3557.535 C 901.54 3558.878 902.174 3560.141 903.243 3561.002 C 904.312 3561.864 905.712 3562.241 907.089 3562.039 L 932.812 3558.236 C 935.229 3557.88 936.995 3555.845 936.932 3553.486 C 936.925 3553.433 936.912 3553.385 936.912 3553.339 L 936.96 3553.346 C 936.96 3548.088 927.335 3545 927.335 3545 Z " fill="rgb(71,136,199)"/><path d=" M 908.599 3595.461 C 906.152 3595.459 904.169 3593.545 904.167 3591.184 L 904.167 3590.329 L 937.846 3590.329 L 937.846 3591.184 C 937.846 3593.543 935.859 3595.461 933.415 3595.461 L 908.599 3595.461 Z " fill="rgb(223,240,254)"/><path d=" M 936.96 3591.184 C 936.96 3593.069 935.368 3594.605 933.415 3594.605 L 908.599 3594.605 C 906.646 3594.605 905.054 3593.069 905.054 3591.184 L 936.96 3591.184 Z  M 938.733 3589.474 L 903.281 3589.474 L 903.281 3591.184 C 903.281 3594.018 905.662 3596.316 908.599 3596.316 L 933.415 3596.316 C 936.352 3596.316 938.733 3594.018 938.733 3591.184 L 938.733 3589.474 Z  M 930.756 3603.158 L 920.121 3603.158 C 919.885 3603.159 919.659 3603.069 919.493 3602.908 C 919.326 3602.748 919.233 3602.53 919.234 3602.303 C 919.234 3601.829 919.63 3601.447 920.121 3601.447 L 930.756 3601.447 C 931.246 3601.447 931.642 3601.83 931.642 3602.303 C 931.642 3602.775 931.246 3603.158 930.756 3603.158 Z  M 914.803 3603.158 L 911.258 3603.158 C 911.022 3603.159 910.796 3603.069 910.63 3602.908 C 910.464 3602.748 910.371 3602.53 910.371 3602.303 C 910.371 3601.829 910.767 3601.447 911.258 3601.447 L 914.803 3601.447 C 915.292 3601.447 915.689 3601.83 915.689 3602.303 C 915.689 3602.775 915.292 3603.158 914.803 3603.158 Z  M 930.756 3599.737 L 920.121 3599.737 C 919.885 3599.738 919.659 3599.648 919.493 3599.487 C 919.326 3599.327 919.233 3599.109 919.234 3598.882 C 919.234 3598.408 919.63 3598.026 920.121 3598.026 L 930.756 3598.026 C 931.246 3598.026 931.642 3598.409 931.642 3598.882 C 931.642 3599.354 931.246 3599.737 930.756 3599.737 Z  M 914.803 3599.737 L 911.258 3599.737 C 911.022 3599.738 910.796 3599.648 910.63 3599.487 C 910.464 3599.327 910.371 3599.109 910.371 3598.882 C 910.371 3598.408 910.767 3598.026 911.258 3598.026 L 914.803 3598.026 C 915.292 3598.026 915.689 3598.409 915.689 3598.882 C 915.689 3599.354 915.292 3599.737 914.803 3599.737 Z " fill="rgb(71,136,199)"/><path d=" M 906.348 3574.921 C 904.208 3574.907 902.462 3573.263 902.395 3571.198 C 902.341 3569.272 903.781 3567.609 905.754 3567.316 L 935.049 3562.995 C 935.257 3562.961 935.457 3562.947 935.659 3562.947 C 937.784 3562.947 939.557 3564.618 939.612 3566.669 C 939.665 3568.597 938.223 3570.261 936.247 3570.552 L 906.95 3574.874 C 906.75 3574.909 906.55 3574.921 906.348 3574.921 Z " fill="rgb(182,220,254)"/><path d=" M 935.659 3563.802 C 937.307 3563.802 938.685 3565.099 938.726 3566.689 C 938.766 3568.186 937.648 3569.479 936.115 3569.709 L 906.819 3574.033 C 906.66 3574.052 906.5 3574.067 906.348 3574.067 C 904.688 3574.053 903.333 3572.781 903.274 3571.18 C 903.233 3569.68 904.355 3568.385 905.892 3568.159 L 935.18 3563.836 C 935.339 3563.815 935.499 3563.804 935.659 3563.802 Z  M 935.659 3562.092 C 935.411 3562.093 935.164 3562.111 934.918 3562.145 L 905.621 3566.469 C 903.205 3566.827 901.441 3568.861 901.502 3571.219 C 901.54 3572.562 902.174 3573.825 903.243 3574.686 C 904.312 3575.548 905.712 3575.925 907.089 3575.723 L 936.386 3571.4 C 938.803 3571.041 940.566 3569.001 940.498 3566.642 C 940.422 3564.113 938.28 3562.1 935.659 3562.092 Z " fill="rgb(71,136,199)"/></g></g><g><rect x="905.667" y="3610" width="30" height="19.667" transform="matrix(1,0,0,1,0,0)" fill="rgb(116,116,116)"/><rect x="910.667" y="3610" width="20" height="19.667" transform="matrix(1,0,0,1,0,0)" fill="rgb(84,183,183)"/></g></g></svg>