<?xml version="1.0" standalone="no"?><!-- Generator: Gravit.io --><svg xmlns="http://www.w3.org/2000/svg" xmlns:xlink="http://www.w3.org/1999/xlink" style="isolation:isolate" viewBox="661 -277 100 100" width="100" height="100"><g><path d="M 670.5 -277 L 751.5 -277 C 756.743 -277 761 -272.743 761 -267.5 L 761 -186.5 C 761 -181.257 756.743 -177 751.5 -177 L 670.5 -177 C 665.257 -177 661 -181.257 661 -186.5 L 661 -267.5 C 661 -272.743 665.257 -277 670.5 -277 Z" style="stroke:none;fill:#2E2E2E;stroke-miterlimit:10;"/><g><path d=" M 696 -197 C 696 -221.836 716.164 -242 741 -242 L 741 -197 L 696 -197 Z " fill="rgb(116,116,116)"/><path d=" M 726 -197 C 726 -205.279 732.721 -212 741 -212 L 741 -197 L 726 -197 Z " fill="rgb(46,46,46)"/><rect x="741" y="-242" width="20" height="30" transform="matrix(-1,0,0,-1,1502,-454)" fill="rgb(116,116,116)"/><rect x="696" y="-197" width="30" height="20" transform="matrix(-1,0,0,-1,1422,-374)" fill="rgb(116,116,116)"/></g></g></svg>