<?xml version="1.0" standalone="no"?><!-- Generator: Gravit.io --><svg xmlns="http://www.w3.org/2000/svg" xmlns:xlink="http://www.w3.org/1999/xlink" style="isolation:isolate" viewBox="241 -277 100 100" width="100" height="100"><g><path d="M 250.5 -277 L 331.5 -277 C 336.743 -277 341 -272.743 341 -267.5 L 341 -186.5 C 341 -181.257 336.743 -177 331.5 -177 L 250.5 -177 C 245.257 -177 241 -181.257 241 -186.5 L 241 -267.5 C 241 -272.743 245.257 -277 250.5 -277 Z" style="stroke:none;fill:#2E2E2E;stroke-miterlimit:10;"/><g><path d=" M 276 -197 C 276 -221.836 296.164 -242 321 -242 L 321 -197 L 276 -197 Z " fill="rgb(116,116,116)"/><path d=" M 306 -197 C 306 -205.279 312.721 -212 321 -212 L 321 -197 L 306 -197 Z " fill="rgb(46,46,46)"/><rect x="321" y="-242" width="20" height="30" transform="matrix(-1,0,0,-1,662,-454)" fill="rgb(116,116,116)"/><rect x="276" y="-197" width="30" height="20" transform="matrix(-1,0,0,-1,582,-374)" fill="rgb(116,116,116)"/><path d=" M 281 -197 C 281 -219.077 298.923 -237 321 -237 L 321 -197 L 281 -197 Z " fill="rgb(84,183,183)"/><path d=" M 301 -197 C 301 -208.038 309.962 -217 321 -217 L 321 -197 L 301 -197 Z " fill="rgb(116,116,116)"/><path d=" M 306 -197 C 306 -205.279 312.721 -212 321 -212 L 321 -197 L 306 -197 Z " fill="rgb(46,46,46)"/><rect x="321" y="-237" width="20" height="20" transform="matrix(-1,0,0,-1,662,-454)" fill="rgb(84,183,183)"/><rect x="281" y="-197" width="20" height="20" transform="matrix(-1,0,0,-1,582,-374)" fill="rgb(84,183,183)"/></g></g></svg>