<?xml version="1.0" standalone="no"?><!-- Generator: Gravit.io --><svg xmlns="http://www.w3.org/2000/svg" xmlns:xlink="http://www.w3.org/1999/xlink" style="isolation:isolate" viewBox="871 -277 100 100" width="100" height="100"><g><path d="M 880.5 -277 L 961.5 -277 C 966.743 -277 971 -272.743 971 -267.5 L 971 -186.5 C 971 -181.257 966.743 -177 961.5 -177 L 880.5 -177 C 875.257 -177 871 -181.257 871 -186.5 L 871 -267.5 C 871 -272.743 875.257 -277 880.5 -277 Z" style="stroke:none;fill:#2E2E2E;stroke-miterlimit:10;"/><g><g><path d=" M 891 -242 C 915.836 -242 936 -221.836 936 -197 L 891 -197 L 891 -242 Z " fill="rgb(116,116,116)"/><path d=" M 891 -212 C 899.279 -212 906 -205.279 906 -197 L 891 -197 L 891 -212 Z " fill="rgb(46,46,46)"/><rect x="911" y="-202" width="20" height="30" transform="matrix(0,-1,1,0,1108,734)" fill="rgb(116,116,116)"/><rect x="866" y="-237" width="30" height="20" transform="matrix(0,-1,1,0,1108,654)" fill="rgb(116,116,116)"/></g></g></g></svg>