<?xml version="1.0" standalone="no"?><!-- Generator: Gravit.io --><svg xmlns="http://www.w3.org/2000/svg" xmlns:xlink="http://www.w3.org/1999/xlink" style="isolation:isolate" viewBox="451 -277 100 100" width="100" height="100"><g><path d="M 460.5 -277 L 541.5 -277 C 546.743 -277 551 -272.743 551 -267.5 L 551 -186.5 C 551 -181.257 546.743 -177 541.5 -177 L 460.5 -177 C 455.257 -177 451 -181.257 451 -186.5 L 451 -267.5 C 451 -272.743 455.257 -277 460.5 -277 Z" style="stroke:none;fill:#2E2E2E;stroke-miterlimit:10;"/><g><path d=" M 471 -242 C 495.836 -242 516 -221.836 516 -197 L 471 -197 L 471 -242 Z " fill="rgb(116,116,116)"/><path d=" M 471 -212 C 479.279 -212 486 -205.279 486 -197 L 471 -197 L 471 -212 Z " fill="rgb(46,46,46)"/><rect x="491" y="-202" width="20" height="30" transform="matrix(0,-1,1,0,688,314)" fill="rgb(116,116,116)"/><rect x="446" y="-237" width="30" height="20" transform="matrix(0,-1,1,0,688,234)" fill="rgb(116,116,116)"/><path d=" M 471 -237 C 493.077 -237 511 -219.077 511 -197 L 471 -197 L 471 -237 Z " fill="rgb(84,183,183)"/><path d=" M 471 -217 C 482.038 -217 491 -208.038 491 -197 L 471 -197 L 471 -217 Z " fill="rgb(116,116,116)"/><path d=" M 471 -212 C 479.279 -212 486 -205.279 486 -197 L 471 -197 L 471 -212 Z " fill="rgb(46,46,46)"/><rect x="491" y="-197" width="20" height="20" transform="matrix(0,-1,1,0,688,314)" fill="rgb(84,183,183)"/><rect x="451" y="-237" width="20" height="20" transform="matrix(0,-1,1,0,688,234)" fill="rgb(84,183,183)"/></g></g></svg>