<?xml version="1.0" standalone="no"?><!-- Generator: Gravit.io --><svg xmlns="http://www.w3.org/2000/svg" xmlns:xlink="http://www.w3.org/1999/xlink" style="isolation:isolate" viewBox="871 3425 100 100" width="100" height="100"><g><g><path d="M 880.5 3425 L 961.5 3425 C 966.743 3425 971 3429.257 971 3434.5 L 971 3515.5 C 971 3520.743 966.743 3525 961.5 3525 L 880.5 3525 C 875.257 3525 871 3520.743 871 3515.5 L 871 3434.5 C 871 3429.257 875.257 3425 880.5 3425 Z" style="stroke:none;fill:#2E2E2E;stroke-miterlimit:10;"/><g><path d=" M 918.522 3489.14 C 918.522 3488.785 918.569 3488.432 918.663 3488.094 L 926.16 3459.497 C 926.671 3457.571 928.479 3456.336 930.388 3456.609 C 931.473 3456.773 932.438 3457.409 933.041 3458.357 C 933.643 3459.305 933.826 3460.476 933.542 3461.573 L 926.038 3490.171 C 925.528 3492.097 923.719 3493.332 921.81 3493.059 C 919.931 3492.772 918.535 3491.108 918.522 3489.14 Z " fill="rgb(31,60,85)"/><path d=" M 932.822 3460.529 C 932.822 3460.798 932.788 3461.076 932.715 3461.339 L 925.217 3489.936 C 924.82 3491.432 923.413 3492.392 921.93 3492.178 C 920.471 3491.958 919.387 3490.667 919.378 3489.14 C 919.378 3488.861 919.412 3488.592 919.484 3488.322 L 926.989 3459.726 C 927.383 3458.229 928.788 3457.268 930.27 3457.481 C 931.731 3457.703 932.817 3458.998 932.822 3460.529 Z  M 934.533 3460.529 C 934.527 3458.102 932.791 3456.054 930.47 3455.734 C 928.149 3455.414 925.957 3456.921 925.339 3459.261 L 917.835 3487.858 C 917.157 3490.443 918.63 3493.108 921.125 3493.809 C 923.619 3494.511 926.191 3492.985 926.868 3490.4 L 934.367 3461.801 C 934.478 3461.386 934.534 3460.957 934.533 3460.527 L 934.533 3460.529 Z " fill="rgb(31,60,85)"/><path d=" M 930.489 3489.14 C 930.489 3488.709 930.557 3488.281 930.689 3487.872 L 939.789 3459.78 C 940.405 3457.887 942.283 3456.762 944.173 3457.157 C 945.247 3457.385 946.175 3458.078 946.723 3459.061 C 947.271 3460.044 947.386 3461.224 947.04 3462.301 L 937.94 3490.4 C 937.947 3491.975 937.054 3493.404 935.665 3494.042 C 934.276 3494.681 932.654 3494.406 931.532 3493.344 C 930.411 3492.282 930.002 3490.632 930.491 3489.141 L 930.489 3489.14 Z " fill="rgb(31,60,85)"/><path d=" M 946.385 3461.034 C 946.385 3461.367 946.332 3461.698 946.231 3462.017 L 937.131 3490.115 C 936.609 3491.726 934.925 3492.595 933.37 3492.054 C 931.814 3491.513 930.976 3489.768 931.498 3488.156 L 940.598 3460.057 C 941.078 3458.587 942.538 3457.715 944.006 3458.022 C 945.386 3458.317 946.379 3459.575 946.383 3461.035 M 948.094 3461.035 C 948.091 3458.729 946.522 3456.743 944.341 3456.285 C 942.028 3455.8 939.73 3457.178 938.982 3459.497 L 929.882 3487.596 C 929.714 3488.108 929.634 3488.627 929.634 3489.138 C 929.641 3491.512 931.304 3493.532 933.565 3493.914 C 935.826 3494.295 938.021 3492.926 938.754 3490.676 L 947.854 3462.585 C 948.015 3462.085 948.096 3461.561 948.094 3461.034 L 948.094 3461.035 Z  M 896.132 3480.325 C 894.298 3480.324 892.603 3479.31 891.687 3477.663 C 890.77 3476.017 890.771 3473.989 891.689 3472.344 C 892.606 3470.698 894.301 3469.685 896.135 3469.686 C 898.97 3469.687 901.268 3472.069 901.267 3475.007 C 901.266 3477.945 898.967 3480.326 896.132 3480.325 L 896.132 3480.325 Z " fill="rgb(11,36,62)"/><path d=" M 895.276 3467.917 C 895.276 3466.448 896.425 3465.258 897.842 3465.258 L 905.539 3465.258 L 905.539 3484.756 L 897.842 3484.756 C 896.425 3484.756 895.276 3483.566 895.276 3482.097 L 895.276 3467.917 Z " fill="rgb(223,240,254)"/><path d=" M 904.684 3483.87 L 897.842 3483.87 C 896.901 3483.87 896.132 3483.072 896.132 3482.097 L 896.132 3467.917 C 896.132 3466.942 896.901 3466.144 897.842 3466.144 L 904.684 3466.144 L 904.684 3483.87 Z  M 906.395 3485.642 L 906.395 3464.371 L 897.842 3464.371 C 895.953 3464.371 894.421 3465.959 894.421 3467.917 L 894.421 3482.097 C 894.421 3484.055 895.953 3485.642 897.842 3485.642 L 906.395 3485.642 Z " fill="rgb(71,136,199)"/><path d=" M 919.224 3479.438 L 919.224 3484.756 L 910.671 3484.756 L 910.671 3479.438 L 919.224 3479.438 Z " fill="rgb(31,60,85)"/><path d=" M 918.368 3483.87 L 911.526 3483.87 L 911.526 3480.325 L 918.368 3480.325 L 918.368 3483.87 Z  M 920.079 3485.642 L 920.079 3478.552 L 909.816 3478.552 L 909.816 3485.642 L 920.079 3485.642 Z " fill="rgb(31,60,85)"/><path d=" M 910.671 3465.258 L 914.787 3465.258 L 914.154 3460.95 C 914.119 3460.75 914.106 3460.55 914.106 3460.348 C 914.12 3458.208 915.764 3456.462 917.828 3456.395 C 919.754 3456.341 921.418 3457.781 921.711 3459.754 L 926.032 3489.049 C 926.066 3489.257 926.079 3489.457 926.079 3489.659 C 926.079 3491.784 924.408 3493.557 922.357 3493.612 C 920.43 3493.665 918.765 3492.223 918.474 3490.247 L 915.568 3470.575 L 910.671 3470.575 L 910.671 3465.258 Z " fill="rgb(31,60,85)"/><path d=" M 925.224 3489.659 C 925.224 3491.307 923.928 3492.685 922.337 3492.726 C 920.84 3492.766 919.547 3491.648 919.318 3490.115 L 916.524 3471.192 L 916.304 3469.689 L 911.526 3469.689 L 911.526 3466.144 L 915.782 3466.144 L 915.483 3464.102 L 914.994 3460.819 C 914.975 3460.66 914.959 3460.5 914.959 3460.348 C 914.973 3458.688 916.246 3457.333 917.847 3457.274 C 919.346 3457.233 920.641 3458.355 920.868 3459.892 L 925.19 3489.18 C 925.211 3489.339 925.222 3489.499 925.224 3489.659 Z  M 926.935 3489.659 C 926.933 3489.411 926.915 3489.164 926.882 3488.918 L 922.557 3459.621 C 922.199 3457.205 920.165 3455.441 917.807 3455.502 C 916.464 3455.54 915.201 3456.174 914.34 3457.243 C 913.478 3458.312 913.101 3459.712 913.304 3461.089 L 913.791 3464.371 L 909.816 3464.371 L 909.816 3471.462 L 914.834 3471.462 L 917.626 3490.386 C 917.986 3492.803 920.025 3494.566 922.385 3494.498 C 924.913 3494.422 926.927 3492.28 926.935 3489.659 Z " fill="rgb(11,36,62)"/><path d=" M 939.764 3460.348 C 939.777 3458.208 941.421 3456.462 943.486 3456.395 C 945.412 3456.341 947.076 3457.781 947.369 3459.754 L 949.466 3473.982 C 951.043 3479.224 953.561 3481.161 954.91 3481.847 C 953.901 3484.534 951.443 3489.402 948.303 3490.012 L 947.601 3490.026 L 947.427 3490.045 C 945.562 3490.095 943.893 3488.654 943.606 3486.681 L 939.81 3460.95 C 939.776 3460.75 939.764 3460.55 939.764 3460.348 Z " fill="rgb(31,60,85)"/><path d=" M 953.828 3482.25 C 952.8 3484.714 950.767 3488.439 948.371 3489.092 L 947.56 3489.14 L 947.381 3489.159 C 945.919 3489.15 944.678 3488.046 944.447 3486.55 L 940.651 3460.819 C 940.633 3460.66 940.617 3460.5 940.617 3460.348 C 940.631 3458.684 941.909 3457.328 943.513 3457.274 C 945.01 3457.239 946.299 3458.359 946.527 3459.892 L 948.624 3474.114 L 948.645 3474.252 L 948.686 3474.376 C 950.102 3479.057 952.273 3481.246 953.829 3482.25 M 956 3481.335 C 956 3481.335 952.351 3480.582 950.314 3473.851 L 948.215 3459.621 C 947.857 3457.205 945.823 3455.441 943.465 3455.502 C 942.122 3455.54 940.859 3456.174 939.998 3457.243 C 939.136 3458.312 938.759 3459.712 938.961 3461.089 L 942.764 3486.812 C 943.12 3489.229 945.155 3490.995 947.514 3490.932 C 947.567 3490.925 947.615 3490.912 947.661 3490.912 L 947.654 3490.96 C 952.912 3490.96 956 3481.335 956 3481.335 Z " fill="rgb(11,36,62)"/><path d=" M 905.539 3462.599 C 905.541 3460.152 907.455 3458.169 909.816 3458.167 L 910.671 3458.167 L 910.671 3491.846 L 909.816 3491.846 C 907.457 3491.846 905.539 3489.859 905.539 3487.415 L 905.539 3462.599 Z " fill="rgb(223,240,254)"/><path d=" M 909.816 3490.96 C 907.931 3490.96 906.395 3489.368 906.395 3487.415 L 906.395 3462.599 C 906.395 3460.646 907.931 3459.054 909.816 3459.054 L 909.816 3490.96 Z  M 911.526 3492.733 L 911.526 3457.281 L 909.816 3457.281 C 906.982 3457.281 904.684 3459.662 904.684 3462.599 L 904.684 3487.415 C 904.684 3490.352 906.982 3492.733 909.816 3492.733 L 911.526 3492.733 Z  M 897.842 3484.756 L 897.842 3474.121 C 897.841 3473.885 897.931 3473.659 898.092 3473.493 C 898.252 3473.326 898.47 3473.233 898.697 3473.234 C 899.171 3473.234 899.553 3473.63 899.553 3474.121 L 899.553 3484.756 C 899.553 3485.246 899.17 3485.642 898.697 3485.642 C 898.225 3485.642 897.842 3485.246 897.842 3484.756 Z  M 897.842 3468.803 L 897.842 3465.258 C 897.841 3465.022 897.931 3464.796 898.092 3464.63 C 898.252 3464.464 898.47 3464.371 898.697 3464.371 C 899.171 3464.371 899.553 3464.767 899.553 3465.258 L 899.553 3468.803 C 899.553 3469.292 899.17 3469.689 898.697 3469.689 C 898.225 3469.689 897.842 3469.292 897.842 3468.803 Z  M 901.263 3484.756 L 901.263 3474.121 C 901.262 3473.885 901.352 3473.659 901.513 3473.493 C 901.673 3473.326 901.891 3473.233 902.118 3473.234 C 902.592 3473.234 902.974 3473.63 902.974 3474.121 L 902.974 3484.756 C 902.974 3485.246 902.591 3485.642 902.118 3485.642 C 901.646 3485.642 901.263 3485.246 901.263 3484.756 Z  M 901.263 3468.803 L 901.263 3465.258 C 901.262 3465.022 901.352 3464.796 901.513 3464.63 C 901.673 3464.464 901.891 3464.371 902.118 3464.371 C 902.592 3464.371 902.974 3464.767 902.974 3465.258 L 902.974 3468.803 C 902.974 3469.292 902.591 3469.689 902.118 3469.689 C 901.646 3469.689 901.263 3469.292 901.263 3468.803 Z " fill="rgb(71,136,199)"/><path d=" M 926.079 3460.348 C 926.093 3458.208 927.737 3456.462 929.802 3456.395 C 931.728 3456.341 933.391 3457.781 933.684 3459.754 L 938.005 3489.049 C 938.039 3489.257 938.053 3489.457 938.053 3489.659 C 938.053 3491.784 936.382 3493.557 934.331 3493.612 C 932.403 3493.665 930.739 3492.223 930.448 3490.247 L 926.126 3460.95 C 926.091 3460.75 926.079 3460.55 926.079 3460.348 Z " fill="rgb(31,60,85)"/><path d=" M 937.198 3489.659 C 937.198 3491.307 935.901 3492.685 934.311 3492.726 C 932.814 3492.766 931.521 3491.648 931.291 3490.115 L 926.967 3460.819 C 926.948 3460.66 926.933 3460.5 926.933 3460.348 C 926.947 3458.688 928.219 3457.333 929.82 3457.274 C 931.32 3457.233 932.615 3458.355 932.841 3459.892 L 937.164 3489.18 C 937.185 3489.339 937.196 3489.499 937.198 3489.659 Z  M 938.908 3489.659 C 938.907 3489.411 938.889 3489.164 938.855 3488.918 L 934.531 3459.621 C 934.173 3457.205 932.139 3455.441 929.781 3455.502 C 928.438 3455.54 927.175 3456.174 926.314 3457.243 C 925.452 3458.312 925.075 3459.712 925.277 3461.089 L 929.6 3490.386 C 929.959 3492.803 931.999 3494.566 934.358 3494.498 C 936.887 3494.422 938.9 3492.28 938.908 3489.659 Z " fill="rgb(11,36,62)"/></g></g><g><rect x="866.167" y="3464.833" width="30" height="19.667" transform="matrix(0,1,-1,0,4355.833,2593.5)" fill="rgb(116,116,116)"/></g></g></svg>