<?xml version="1.0" standalone="no"?><!-- Generator: Gravit.io --><svg xmlns="http://www.w3.org/2000/svg" xmlns:xlink="http://www.w3.org/1999/xlink" style="isolation:isolate" viewBox="871 3530 100 100" width="100" height="100"><g><g><path d="M 880.5 3530 L 961.5 3530 C 966.743 3530 971 3534.257 971 3539.5 L 971 3620.5 C 971 3625.743 966.743 3630 961.5 3630 L 880.5 3630 C 875.257 3630 871 3625.743 871 3620.5 L 871 3539.5 C 871 3534.257 875.257 3530 880.5 3530 Z" style="stroke:none;fill:#2E2E2E;stroke-miterlimit:10;"/><g><path d=" M 918.522 3594.14 C 918.522 3593.785 918.569 3593.432 918.663 3593.094 L 926.16 3564.497 C 926.671 3562.571 928.479 3561.336 930.388 3561.609 C 931.473 3561.773 932.438 3562.409 933.041 3563.357 C 933.643 3564.305 933.826 3565.476 933.542 3566.573 L 926.038 3595.171 C 925.528 3597.097 923.719 3598.332 921.81 3598.059 C 919.931 3597.772 918.535 3596.108 918.522 3594.14 Z " fill="rgb(182,220,254)"/><path d=" M 932.822 3565.529 C 932.822 3565.798 932.788 3566.076 932.715 3566.339 L 925.217 3594.936 C 924.82 3596.432 923.413 3597.392 921.93 3597.178 C 920.471 3596.958 919.387 3595.667 919.378 3594.14 C 919.378 3593.861 919.412 3593.592 919.484 3593.322 L 926.989 3564.726 C 927.383 3563.229 928.788 3562.268 930.27 3562.481 C 931.731 3562.703 932.817 3563.998 932.822 3565.529 Z  M 934.533 3565.529 C 934.527 3563.102 932.791 3561.054 930.47 3560.734 C 928.149 3560.414 925.957 3561.921 925.339 3564.261 L 917.835 3592.858 C 917.157 3595.443 918.63 3598.108 921.125 3598.809 C 923.619 3599.511 926.191 3597.985 926.868 3595.4 L 934.367 3566.801 C 934.478 3566.386 934.534 3565.957 934.533 3565.527 L 934.533 3565.529 Z " fill="rgb(31,60,85)"/><path d=" M 930.489 3594.14 C 930.489 3593.709 930.557 3593.281 930.689 3592.872 L 939.789 3564.78 C 940.405 3562.887 942.283 3561.762 944.173 3562.157 C 945.247 3562.385 946.175 3563.078 946.723 3564.061 C 947.271 3565.044 947.386 3566.224 947.04 3567.301 L 937.94 3595.4 C 937.947 3596.975 937.054 3598.404 935.665 3599.042 C 934.276 3599.681 932.654 3599.406 931.532 3598.344 C 930.411 3597.282 930.002 3595.632 930.491 3594.141 L 930.489 3594.14 Z " fill="rgb(182,220,254)"/><path d=" M 946.385 3566.034 C 946.385 3566.367 946.332 3566.698 946.231 3567.017 L 937.131 3595.115 C 936.609 3596.726 934.925 3597.595 933.37 3597.054 C 931.814 3596.513 930.976 3594.768 931.498 3593.156 L 940.598 3565.057 C 941.078 3563.587 942.538 3562.715 944.006 3563.022 C 945.386 3563.317 946.379 3564.575 946.383 3566.035 M 948.094 3566.035 C 948.091 3563.729 946.522 3561.743 944.341 3561.285 C 942.028 3560.8 939.73 3562.178 938.982 3564.497 L 929.882 3592.596 C 929.714 3593.108 929.634 3593.627 929.634 3594.138 C 929.641 3596.512 931.304 3598.532 933.565 3598.914 C 935.826 3599.295 938.021 3597.926 938.754 3595.676 L 947.854 3567.585 C 948.015 3567.085 948.096 3566.561 948.094 3566.034 L 948.094 3566.035 Z  M 896.132 3585.325 C 894.298 3585.324 892.603 3584.31 891.687 3582.663 C 890.77 3581.017 890.771 3578.989 891.689 3577.344 C 892.606 3575.698 894.301 3574.685 896.135 3574.686 C 898.97 3574.687 901.268 3577.069 901.267 3580.007 C 901.266 3582.945 898.967 3585.326 896.132 3585.325 L 896.132 3585.325 Z " fill="rgb(71,136,199)"/><path d=" M 895.276 3572.917 C 895.276 3571.448 896.425 3570.258 897.842 3570.258 L 905.539 3570.258 L 905.539 3589.756 L 897.842 3589.756 C 896.425 3589.756 895.276 3588.566 895.276 3587.097 L 895.276 3572.917 Z " fill="rgb(223,240,254)"/><path d=" M 904.684 3588.87 L 897.842 3588.87 C 896.901 3588.87 896.132 3588.072 896.132 3587.097 L 896.132 3572.917 C 896.132 3571.942 896.901 3571.144 897.842 3571.144 L 904.684 3571.144 L 904.684 3588.87 Z  M 906.395 3590.642 L 906.395 3569.371 L 897.842 3569.371 C 895.953 3569.371 894.421 3570.959 894.421 3572.917 L 894.421 3587.097 C 894.421 3589.055 895.953 3590.642 897.842 3590.642 L 906.395 3590.642 Z " fill="rgb(71,136,199)"/><path d=" M 919.224 3584.438 L 919.224 3589.756 L 910.671 3589.756 L 910.671 3584.438 L 919.224 3584.438 Z " fill="rgb(182,220,254)"/><path d=" M 918.368 3588.87 L 911.526 3588.87 L 911.526 3585.325 L 918.368 3585.325 L 918.368 3588.87 Z  M 920.079 3590.642 L 920.079 3583.552 L 909.816 3583.552 L 909.816 3590.642 L 920.079 3590.642 Z " fill="rgb(71,136,199)"/><path d=" M 910.671 3570.258 L 914.787 3570.258 L 914.154 3565.95 C 914.119 3565.75 914.106 3565.55 914.106 3565.348 C 914.12 3563.208 915.764 3561.462 917.828 3561.395 C 919.754 3561.341 921.418 3562.781 921.711 3564.754 L 926.032 3594.049 C 926.066 3594.257 926.079 3594.457 926.079 3594.659 C 926.079 3596.784 924.408 3598.557 922.357 3598.612 C 920.43 3598.665 918.765 3597.223 918.474 3595.247 L 915.568 3575.575 L 910.671 3575.575 L 910.671 3570.258 Z " fill="rgb(182,220,254)"/><path d=" M 925.224 3594.659 C 925.224 3596.307 923.928 3597.685 922.337 3597.726 C 920.84 3597.766 919.547 3596.648 919.318 3595.115 L 916.524 3576.192 L 916.304 3574.689 L 911.526 3574.689 L 911.526 3571.144 L 915.782 3571.144 L 915.483 3569.102 L 914.994 3565.819 C 914.975 3565.66 914.959 3565.5 914.959 3565.348 C 914.973 3563.688 916.246 3562.333 917.847 3562.274 C 919.346 3562.233 920.641 3563.355 920.868 3564.892 L 925.19 3594.18 C 925.211 3594.339 925.222 3594.499 925.224 3594.659 Z  M 926.935 3594.659 C 926.933 3594.411 926.915 3594.164 926.882 3593.918 L 922.557 3564.621 C 922.199 3562.205 920.165 3560.441 917.807 3560.502 C 916.464 3560.54 915.201 3561.174 914.34 3562.243 C 913.478 3563.312 913.101 3564.712 913.304 3566.089 L 913.791 3569.371 L 909.816 3569.371 L 909.816 3576.462 L 914.834 3576.462 L 917.626 3595.386 C 917.986 3597.803 920.025 3599.566 922.385 3599.498 C 924.913 3599.422 926.927 3597.28 926.935 3594.659 Z " fill="rgb(71,136,199)"/><path d=" M 939.764 3565.348 C 939.777 3563.208 941.421 3561.462 943.486 3561.395 C 945.412 3561.341 947.076 3562.781 947.369 3564.754 L 949.466 3578.982 C 951.043 3584.224 953.561 3586.161 954.91 3586.847 C 953.901 3589.534 951.443 3594.402 948.303 3595.012 L 947.601 3595.026 L 947.427 3595.045 C 945.562 3595.095 943.893 3593.654 943.606 3591.681 L 939.81 3565.95 C 939.776 3565.75 939.764 3565.55 939.764 3565.348 Z " fill="rgb(182,220,254)"/><path d=" M 953.828 3587.25 C 952.8 3589.714 950.767 3593.439 948.371 3594.092 L 947.56 3594.14 L 947.381 3594.159 C 945.919 3594.15 944.678 3593.046 944.447 3591.55 L 940.651 3565.819 C 940.633 3565.66 940.617 3565.5 940.617 3565.348 C 940.631 3563.684 941.909 3562.328 943.513 3562.274 C 945.01 3562.239 946.299 3563.359 946.527 3564.892 L 948.624 3579.114 L 948.645 3579.252 L 948.686 3579.376 C 950.102 3584.057 952.273 3586.246 953.829 3587.25 M 956 3586.335 C 956 3586.335 952.351 3585.582 950.314 3578.851 L 948.215 3564.621 C 947.857 3562.205 945.823 3560.441 943.465 3560.502 C 942.122 3560.54 940.859 3561.174 939.998 3562.243 C 939.136 3563.312 938.759 3564.712 938.961 3566.089 L 942.764 3591.812 C 943.12 3594.229 945.155 3595.995 947.514 3595.932 C 947.567 3595.925 947.615 3595.912 947.661 3595.912 L 947.654 3595.96 C 952.912 3595.96 956 3586.335 956 3586.335 Z " fill="rgb(71,136,199)"/><path d=" M 905.539 3567.599 C 905.541 3565.152 907.455 3563.169 909.816 3563.167 L 910.671 3563.167 L 910.671 3596.846 L 909.816 3596.846 C 907.457 3596.846 905.539 3594.859 905.539 3592.415 L 905.539 3567.599 Z " fill="rgb(223,240,254)"/><path d=" M 909.816 3595.96 C 907.931 3595.96 906.395 3594.368 906.395 3592.415 L 906.395 3567.599 C 906.395 3565.646 907.931 3564.054 909.816 3564.054 L 909.816 3595.96 Z  M 911.526 3597.733 L 911.526 3562.281 L 909.816 3562.281 C 906.982 3562.281 904.684 3564.662 904.684 3567.599 L 904.684 3592.415 C 904.684 3595.352 906.982 3597.733 909.816 3597.733 L 911.526 3597.733 Z  M 897.842 3589.756 L 897.842 3579.121 C 897.841 3578.885 897.931 3578.659 898.092 3578.493 C 898.252 3578.326 898.47 3578.233 898.697 3578.234 C 899.171 3578.234 899.553 3578.63 899.553 3579.121 L 899.553 3589.756 C 899.553 3590.246 899.17 3590.642 898.697 3590.642 C 898.225 3590.642 897.842 3590.246 897.842 3589.756 Z  M 897.842 3573.803 L 897.842 3570.258 C 897.841 3570.022 897.931 3569.796 898.092 3569.63 C 898.252 3569.464 898.47 3569.371 898.697 3569.371 C 899.171 3569.371 899.553 3569.767 899.553 3570.258 L 899.553 3573.803 C 899.553 3574.292 899.17 3574.689 898.697 3574.689 C 898.225 3574.689 897.842 3574.292 897.842 3573.803 Z  M 901.263 3589.756 L 901.263 3579.121 C 901.262 3578.885 901.352 3578.659 901.513 3578.493 C 901.673 3578.326 901.891 3578.233 902.118 3578.234 C 902.592 3578.234 902.974 3578.63 902.974 3579.121 L 902.974 3589.756 C 902.974 3590.246 902.591 3590.642 902.118 3590.642 C 901.646 3590.642 901.263 3590.246 901.263 3589.756 Z  M 901.263 3573.803 L 901.263 3570.258 C 901.262 3570.022 901.352 3569.796 901.513 3569.63 C 901.673 3569.464 901.891 3569.371 902.118 3569.371 C 902.592 3569.371 902.974 3569.767 902.974 3570.258 L 902.974 3573.803 C 902.974 3574.292 902.591 3574.689 902.118 3574.689 C 901.646 3574.689 901.263 3574.292 901.263 3573.803 Z " fill="rgb(71,136,199)"/><path d=" M 926.079 3565.348 C 926.093 3563.208 927.737 3561.462 929.802 3561.395 C 931.728 3561.341 933.391 3562.781 933.684 3564.754 L 938.005 3594.049 C 938.039 3594.257 938.053 3594.457 938.053 3594.659 C 938.053 3596.784 936.382 3598.557 934.331 3598.612 C 932.403 3598.665 930.739 3597.223 930.448 3595.247 L 926.126 3565.95 C 926.091 3565.75 926.079 3565.55 926.079 3565.348 Z " fill="rgb(182,220,254)"/><path d=" M 937.198 3594.659 C 937.198 3596.307 935.901 3597.685 934.311 3597.726 C 932.814 3597.766 931.521 3596.648 931.291 3595.115 L 926.967 3565.819 C 926.948 3565.66 926.933 3565.5 926.933 3565.348 C 926.947 3563.688 928.219 3562.333 929.82 3562.274 C 931.32 3562.233 932.615 3563.355 932.841 3564.892 L 937.164 3594.18 C 937.185 3594.339 937.196 3594.499 937.198 3594.659 Z  M 938.908 3594.659 C 938.907 3594.411 938.889 3594.164 938.855 3593.918 L 934.531 3564.621 C 934.173 3562.205 932.139 3560.441 929.781 3560.502 C 928.438 3560.54 927.175 3561.174 926.314 3562.243 C 925.452 3563.312 925.075 3564.712 925.277 3566.089 L 929.6 3595.386 C 929.959 3597.803 931.999 3599.566 934.358 3599.498 C 936.887 3599.422 938.9 3597.28 938.908 3594.659 Z " fill="rgb(71,136,199)"/></g></g><g><rect x="866.167" y="3569.833" width="30" height="19.667" transform="matrix(0,1,-1,0,4460.833,2698.5)" fill="rgb(116,116,116)"/><rect x="871.167" y="3569.833" width="20" height="19.667" transform="matrix(0,1,-1,0,4460.833,2698.5)" fill="rgb(84,183,183)"/></g></g></svg>