<?xml version="1.0" standalone="no"?><!-- Generator: Gravit.io --><svg xmlns="http://www.w3.org/2000/svg" xmlns:xlink="http://www.w3.org/1999/xlink" style="isolation:isolate" viewBox="871 3215.25 100 100" width="100" height="100"><g><g><path d="M 880.5 3215.25 L 961.5 3215.25 C 966.743 3215.25 971 3219.507 971 3224.75 L 971 3305.75 C 971 3310.993 966.743 3315.25 961.5 3315.25 L 880.5 3315.25 C 875.257 3315.25 871 3310.993 871 3305.75 L 871 3224.75 C 871 3219.507 875.257 3215.25 880.5 3215.25 Z" style="stroke:none;fill:#2E2E2E;stroke-miterlimit:10;"/><g><path d=" M 918.522 3279.39 C 918.522 3279.035 918.569 3278.682 918.663 3278.344 L 926.16 3249.747 C 926.671 3247.821 928.479 3246.586 930.388 3246.859 C 931.473 3247.023 932.438 3247.659 933.041 3248.607 C 933.643 3249.555 933.826 3250.726 933.542 3251.823 L 926.038 3280.421 C 925.528 3282.347 923.719 3283.582 921.81 3283.309 C 919.931 3283.022 918.535 3281.358 918.522 3279.39 Z " fill="rgb(255,74,74)"/><path d=" M 932.822 3250.779 C 932.822 3251.048 932.788 3251.326 932.715 3251.589 L 925.217 3280.186 C 924.82 3281.682 923.413 3282.642 921.93 3282.428 C 920.471 3282.208 919.387 3280.917 919.378 3279.39 C 919.378 3279.111 919.412 3278.842 919.484 3278.572 L 926.989 3249.976 C 927.383 3248.479 928.788 3247.518 930.27 3247.731 C 931.731 3247.953 932.817 3249.248 932.822 3250.779 Z  M 934.533 3250.779 C 934.527 3248.352 932.791 3246.304 930.47 3245.984 C 928.149 3245.664 925.957 3247.171 925.339 3249.511 L 917.835 3278.108 C 917.157 3280.693 918.63 3283.358 921.125 3284.059 C 923.619 3284.761 926.191 3283.235 926.868 3280.65 L 934.367 3252.051 C 934.478 3251.636 934.534 3251.207 934.533 3250.777 L 934.533 3250.779 Z " fill="rgb(238,0,0)"/><path d=" M 930.489 3279.39 C 930.489 3278.959 930.557 3278.531 930.689 3278.122 L 939.789 3250.03 C 940.405 3248.137 942.283 3247.012 944.173 3247.407 C 945.247 3247.635 946.175 3248.328 946.723 3249.311 C 947.271 3250.294 947.386 3251.474 947.04 3252.551 L 937.94 3280.65 C 937.947 3282.225 937.054 3283.654 935.665 3284.292 C 934.276 3284.931 932.654 3284.656 931.532 3283.594 C 930.411 3282.532 930.002 3280.882 930.491 3279.391 L 930.489 3279.39 Z " fill="rgb(255,74,74)"/><path d=" M 946.385 3251.284 C 946.385 3251.617 946.332 3251.948 946.231 3252.267 L 937.131 3280.365 C 936.609 3281.976 934.925 3282.845 933.37 3282.304 C 931.814 3281.763 930.976 3280.018 931.498 3278.406 L 940.598 3250.307 C 941.078 3248.837 942.538 3247.965 944.006 3248.272 C 945.386 3248.567 946.379 3249.825 946.383 3251.285 M 948.094 3251.285 C 948.091 3248.979 946.522 3246.993 944.341 3246.535 C 942.028 3246.05 939.73 3247.428 938.982 3249.747 L 929.882 3277.846 C 929.714 3278.358 929.634 3278.877 929.634 3279.388 C 929.641 3281.762 931.304 3283.782 933.565 3284.164 C 935.826 3284.545 938.021 3283.176 938.754 3280.926 L 947.854 3252.835 C 948.015 3252.335 948.096 3251.811 948.094 3251.284 L 948.094 3251.285 Z  M 896.132 3270.575 C 894.298 3270.574 892.603 3269.56 891.687 3267.913 C 890.77 3266.267 890.771 3264.239 891.689 3262.594 C 892.606 3260.948 894.301 3259.935 896.135 3259.936 C 898.97 3259.937 901.268 3262.319 901.267 3265.257 C 901.266 3268.195 898.967 3270.576 896.132 3270.575 L 896.132 3270.575 Z " fill="rgb(238,0,0)"/><path d=" M 895.276 3258.167 C 895.276 3256.698 896.425 3255.508 897.842 3255.508 L 905.539 3255.508 L 905.539 3275.006 L 897.842 3275.006 C 896.425 3275.006 895.276 3273.816 895.276 3272.347 L 895.276 3258.167 Z " fill="rgb(223,240,254)"/><path d=" M 904.684 3274.12 L 897.842 3274.12 C 896.901 3274.12 896.132 3273.322 896.132 3272.347 L 896.132 3258.167 C 896.132 3257.192 896.901 3256.394 897.842 3256.394 L 904.684 3256.394 L 904.684 3274.12 Z  M 906.395 3275.892 L 906.395 3254.621 L 897.842 3254.621 C 895.953 3254.621 894.421 3256.209 894.421 3258.167 L 894.421 3272.347 C 894.421 3274.305 895.953 3275.892 897.842 3275.892 L 906.395 3275.892 Z " fill="rgb(71,136,199)"/><path d=" M 919.224 3269.688 L 919.224 3275.006 L 910.671 3275.006 L 910.671 3269.688 L 919.224 3269.688 Z " fill="rgb(255,74,74)"/><path d=" M 918.368 3274.12 L 911.526 3274.12 L 911.526 3270.575 L 918.368 3270.575 L 918.368 3274.12 Z  M 920.079 3275.892 L 920.079 3268.802 L 909.816 3268.802 L 909.816 3275.892 L 920.079 3275.892 Z " fill="rgb(238,0,0)"/><path d=" M 910.671 3255.508 L 914.787 3255.508 L 914.154 3251.2 C 914.119 3251 914.106 3250.8 914.106 3250.598 C 914.12 3248.458 915.764 3246.712 917.828 3246.645 C 919.754 3246.591 921.418 3248.031 921.711 3250.004 L 926.032 3279.299 C 926.066 3279.507 926.079 3279.707 926.079 3279.909 C 926.079 3282.034 924.408 3283.807 922.357 3283.862 C 920.43 3283.915 918.765 3282.473 918.474 3280.497 L 915.568 3260.825 L 910.671 3260.825 L 910.671 3255.508 Z " fill="rgb(255,74,74)"/><path d=" M 925.224 3279.909 C 925.224 3281.557 923.928 3282.935 922.337 3282.976 C 920.84 3283.016 919.547 3281.898 919.318 3280.365 L 916.524 3261.442 L 916.304 3259.939 L 911.526 3259.939 L 911.526 3256.394 L 915.782 3256.394 L 915.483 3254.352 L 914.994 3251.069 C 914.975 3250.91 914.959 3250.75 914.959 3250.598 C 914.973 3248.938 916.246 3247.583 917.847 3247.524 C 919.346 3247.483 920.641 3248.605 920.868 3250.142 L 925.19 3279.43 C 925.211 3279.589 925.222 3279.749 925.224 3279.909 Z  M 926.935 3279.909 C 926.933 3279.661 926.915 3279.414 926.882 3279.168 L 922.557 3249.871 C 922.199 3247.455 920.165 3245.691 917.807 3245.752 C 916.464 3245.79 915.201 3246.424 914.34 3247.493 C 913.478 3248.562 913.101 3249.962 913.304 3251.339 L 913.791 3254.621 L 909.816 3254.621 L 909.816 3261.712 L 914.834 3261.712 L 917.626 3280.636 C 917.986 3283.053 920.025 3284.816 922.385 3284.748 C 924.913 3284.672 926.927 3282.53 926.935 3279.909 Z " fill="rgb(238,0,0)"/><path d=" M 939.764 3250.598 C 939.777 3248.458 941.421 3246.712 943.486 3246.645 C 945.412 3246.591 947.076 3248.031 947.369 3250.004 L 949.466 3264.232 C 951.043 3269.474 953.561 3271.411 954.91 3272.097 C 953.901 3274.784 951.443 3279.652 948.303 3280.262 L 947.601 3280.276 L 947.427 3280.295 C 945.562 3280.345 943.893 3278.904 943.606 3276.931 L 939.81 3251.2 C 939.776 3251 939.764 3250.8 939.764 3250.598 Z " fill="rgb(255,74,74)"/><path d=" M 953.828 3272.5 C 952.8 3274.964 950.767 3278.689 948.371 3279.342 L 947.56 3279.39 L 947.381 3279.409 C 945.919 3279.4 944.678 3278.296 944.447 3276.8 L 940.651 3251.069 C 940.633 3250.91 940.617 3250.75 940.617 3250.598 C 940.631 3248.934 941.909 3247.578 943.513 3247.524 C 945.01 3247.489 946.299 3248.609 946.527 3250.142 L 948.624 3264.364 L 948.645 3264.502 L 948.686 3264.626 C 950.102 3269.307 952.273 3271.496 953.829 3272.5 M 956 3271.585 C 956 3271.585 952.351 3270.832 950.314 3264.101 L 948.215 3249.871 C 947.857 3247.455 945.823 3245.691 943.465 3245.752 C 942.122 3245.79 940.859 3246.424 939.998 3247.493 C 939.136 3248.562 938.759 3249.962 938.961 3251.339 L 942.764 3277.062 C 943.12 3279.479 945.155 3281.245 947.514 3281.182 C 947.567 3281.175 947.615 3281.162 947.661 3281.162 L 947.654 3281.21 C 952.912 3281.21 956 3271.585 956 3271.585 Z " fill="rgb(238,0,0)"/><path d=" M 905.539 3252.849 C 905.541 3250.402 907.455 3248.419 909.816 3248.417 L 910.671 3248.417 L 910.671 3282.096 L 909.816 3282.096 C 907.457 3282.096 905.539 3280.109 905.539 3277.665 L 905.539 3252.849 Z " fill="rgb(223,240,254)"/><path d=" M 909.816 3281.21 C 907.931 3281.21 906.395 3279.618 906.395 3277.665 L 906.395 3252.849 C 906.395 3250.896 907.931 3249.304 909.816 3249.304 L 909.816 3281.21 Z  M 911.526 3282.983 L 911.526 3247.531 L 909.816 3247.531 C 906.982 3247.531 904.684 3249.912 904.684 3252.849 L 904.684 3277.665 C 904.684 3280.602 906.982 3282.983 909.816 3282.983 L 911.526 3282.983 Z  M 897.842 3275.006 L 897.842 3264.371 C 897.841 3264.135 897.931 3263.909 898.092 3263.743 C 898.252 3263.576 898.47 3263.483 898.697 3263.484 C 899.171 3263.484 899.553 3263.88 899.553 3264.371 L 899.553 3275.006 C 899.553 3275.496 899.17 3275.892 898.697 3275.892 C 898.225 3275.892 897.842 3275.496 897.842 3275.006 Z  M 897.842 3259.053 L 897.842 3255.508 C 897.841 3255.272 897.931 3255.046 898.092 3254.88 C 898.252 3254.714 898.47 3254.621 898.697 3254.621 C 899.171 3254.621 899.553 3255.017 899.553 3255.508 L 899.553 3259.053 C 899.553 3259.542 899.17 3259.939 898.697 3259.939 C 898.225 3259.939 897.842 3259.542 897.842 3259.053 Z  M 901.263 3275.006 L 901.263 3264.371 C 901.262 3264.135 901.352 3263.909 901.513 3263.743 C 901.673 3263.576 901.891 3263.483 902.118 3263.484 C 902.592 3263.484 902.974 3263.88 902.974 3264.371 L 902.974 3275.006 C 902.974 3275.496 902.591 3275.892 902.118 3275.892 C 901.646 3275.892 901.263 3275.496 901.263 3275.006 Z  M 901.263 3259.053 L 901.263 3255.508 C 901.262 3255.272 901.352 3255.046 901.513 3254.88 C 901.673 3254.714 901.891 3254.621 902.118 3254.621 C 902.592 3254.621 902.974 3255.017 902.974 3255.508 L 902.974 3259.053 C 902.974 3259.542 902.591 3259.939 902.118 3259.939 C 901.646 3259.939 901.263 3259.542 901.263 3259.053 Z " fill="rgb(71,136,199)"/><path d=" M 926.079 3250.598 C 926.093 3248.458 927.737 3246.712 929.802 3246.645 C 931.728 3246.591 933.391 3248.031 933.684 3250.004 L 938.005 3279.299 C 938.039 3279.507 938.053 3279.707 938.053 3279.909 C 938.053 3282.034 936.382 3283.807 934.331 3283.862 C 932.403 3283.915 930.739 3282.473 930.448 3280.497 L 926.126 3251.2 C 926.091 3251 926.079 3250.8 926.079 3250.598 Z " fill="rgb(255,74,74)"/><path d=" M 937.198 3279.909 C 937.198 3281.557 935.901 3282.935 934.311 3282.976 C 932.814 3283.016 931.521 3281.898 931.291 3280.365 L 926.967 3251.069 C 926.948 3250.91 926.933 3250.75 926.933 3250.598 C 926.947 3248.938 928.219 3247.583 929.82 3247.524 C 931.32 3247.483 932.615 3248.605 932.841 3250.142 L 937.164 3279.43 C 937.185 3279.589 937.196 3279.749 937.198 3279.909 Z  M 938.908 3279.909 C 938.907 3279.661 938.889 3279.414 938.855 3279.168 L 934.531 3249.871 C 934.173 3247.455 932.139 3245.691 929.781 3245.752 C 928.438 3245.79 927.175 3246.424 926.314 3247.493 C 925.452 3248.562 925.075 3249.962 925.277 3251.339 L 929.6 3280.636 C 929.959 3283.053 931.999 3284.816 934.358 3284.748 C 936.887 3284.672 938.9 3282.53 938.908 3279.909 Z " fill="rgb(238,0,0)"/></g></g><g><rect x="866.167" y="3255.083" width="30" height="19.667" transform="matrix(0,1,-1,0,4146.083,2383.75)" fill="rgb(116,116,116)"/><rect x="871.167" y="3255.083" width="20" height="19.667" transform="matrix(0,1,-1,0,4146.083,2383.75)" fill="rgb(84,183,183)"/></g></g></svg>