<?xml version="1.0" standalone="no"?><!-- Generator: Gravit.io --><svg xmlns="http://www.w3.org/2000/svg" xmlns:xlink="http://www.w3.org/1999/xlink" style="isolation:isolate" viewBox="975.5 3530 100 100" width="100" height="100"><g><g><path d="M 985 3530 L 1066 3530 C 1071.243 3530 1075.5 3534.257 1075.5 3539.5 L 1075.5 3620.5 C 1075.5 3625.743 1071.243 3630 1066 3630 L 985 3630 C 979.757 3630 975.5 3625.743 975.5 3620.5 L 975.5 3539.5 C 975.5 3534.257 979.757 3530 985 3530 Z" style="stroke:none;fill:#2E2E2E;stroke-miterlimit:10;"/><g><path d=" M 1023.022 3594.14 C 1023.022 3593.785 1023.069 3593.432 1023.163 3593.094 L 1030.66 3564.497 C 1031.171 3562.571 1032.979 3561.336 1034.888 3561.609 C 1035.973 3561.773 1036.938 3562.409 1037.541 3563.357 C 1038.143 3564.305 1038.326 3565.476 1038.042 3566.573 L 1030.538 3595.171 C 1030.028 3597.097 1028.219 3598.332 1026.31 3598.059 C 1024.431 3597.772 1023.035 3596.108 1023.022 3594.14 Z " fill="rgb(37,19,111)"/><path d=" M 1037.322 3565.529 C 1037.322 3565.798 1037.288 3566.076 1037.215 3566.339 L 1029.717 3594.936 C 1029.32 3596.432 1027.913 3597.392 1026.43 3597.178 C 1024.971 3596.958 1023.887 3595.667 1023.878 3594.14 C 1023.878 3593.861 1023.912 3593.592 1023.984 3593.322 L 1031.489 3564.726 C 1031.883 3563.229 1033.288 3562.268 1034.77 3562.481 C 1036.231 3562.703 1037.317 3563.998 1037.322 3565.529 Z  M 1039.033 3565.529 C 1039.027 3563.102 1037.291 3561.054 1034.97 3560.734 C 1032.649 3560.414 1030.457 3561.921 1029.839 3564.261 L 1022.335 3592.858 C 1021.657 3595.443 1023.13 3598.108 1025.625 3598.809 C 1028.119 3599.511 1030.691 3597.985 1031.368 3595.4 L 1038.867 3566.801 C 1038.978 3566.386 1039.034 3565.957 1039.033 3565.527 L 1039.033 3565.529 Z " fill="rgb(31,13,102)"/><path d=" M 1034.989 3594.14 C 1034.989 3593.709 1035.057 3593.281 1035.189 3592.872 L 1044.289 3564.78 C 1044.905 3562.887 1046.783 3561.762 1048.673 3562.157 C 1049.747 3562.385 1050.675 3563.078 1051.223 3564.061 C 1051.771 3565.044 1051.886 3566.224 1051.54 3567.301 L 1042.44 3595.4 C 1042.447 3596.975 1041.554 3598.404 1040.165 3599.042 C 1038.776 3599.681 1037.154 3599.406 1036.032 3598.344 C 1034.911 3597.282 1034.502 3595.632 1034.991 3594.141 L 1034.989 3594.14 Z " fill="rgb(37,19,111)"/><path d=" M 1050.885 3566.034 C 1050.885 3566.367 1050.832 3566.698 1050.731 3567.017 L 1041.631 3595.115 C 1041.109 3596.726 1039.425 3597.595 1037.87 3597.054 C 1036.314 3596.513 1035.476 3594.768 1035.998 3593.156 L 1045.098 3565.057 C 1045.578 3563.587 1047.038 3562.715 1048.506 3563.022 C 1049.886 3563.317 1050.879 3564.575 1050.883 3566.035 M 1052.594 3566.035 C 1052.591 3563.729 1051.022 3561.743 1048.841 3561.285 C 1046.528 3560.8 1044.23 3562.178 1043.482 3564.497 L 1034.382 3592.596 C 1034.214 3593.108 1034.134 3593.627 1034.134 3594.138 C 1034.141 3596.512 1035.804 3598.532 1038.065 3598.914 C 1040.326 3599.295 1042.521 3597.926 1043.254 3595.676 L 1052.354 3567.585 C 1052.515 3567.085 1052.596 3566.561 1052.594 3566.034 L 1052.594 3566.035 Z  M 1000.632 3585.325 C 998.798 3585.324 997.103 3584.31 996.187 3582.663 C 995.27 3581.017 995.271 3578.989 996.189 3577.344 C 997.106 3575.698 998.801 3574.685 1000.635 3574.686 C 1003.47 3574.687 1005.768 3577.069 1005.767 3580.007 C 1005.766 3582.945 1003.467 3585.326 1000.632 3585.325 L 1000.632 3585.325 Z " fill="rgb(31,13,102)"/><path d=" M 999.776 3572.917 C 999.776 3571.448 1000.925 3570.258 1002.342 3570.258 L 1010.039 3570.258 L 1010.039 3589.756 L 1002.342 3589.756 C 1000.925 3589.756 999.776 3588.566 999.776 3587.097 L 999.776 3572.917 Z " fill="rgb(223,240,254)"/><path d=" M 1009.184 3588.87 L 1002.342 3588.87 C 1001.401 3588.87 1000.632 3588.072 1000.632 3587.097 L 1000.632 3572.917 C 1000.632 3571.942 1001.401 3571.144 1002.342 3571.144 L 1009.184 3571.144 L 1009.184 3588.87 Z  M 1010.895 3590.642 L 1010.895 3569.371 L 1002.342 3569.371 C 1000.453 3569.371 998.921 3570.959 998.921 3572.917 L 998.921 3587.097 C 998.921 3589.055 1000.453 3590.642 1002.342 3590.642 L 1010.895 3590.642 Z " fill="rgb(71,136,199)"/><path d=" M 1023.724 3584.438 L 1023.724 3589.756 L 1015.171 3589.756 L 1015.171 3584.438 L 1023.724 3584.438 Z " fill="rgb(37,19,111)"/><path d=" M 1022.868 3588.87 L 1016.026 3588.87 L 1016.026 3585.325 L 1022.868 3585.325 L 1022.868 3588.87 Z  M 1024.579 3590.642 L 1024.579 3583.552 L 1014.316 3583.552 L 1014.316 3590.642 L 1024.579 3590.642 Z " fill="rgb(31,13,102)"/><path d=" M 1015.171 3570.258 L 1019.287 3570.258 L 1018.654 3565.95 C 1018.619 3565.75 1018.606 3565.55 1018.606 3565.348 C 1018.62 3563.208 1020.264 3561.462 1022.328 3561.395 C 1024.254 3561.341 1025.918 3562.781 1026.211 3564.754 L 1030.532 3594.049 C 1030.566 3594.257 1030.579 3594.457 1030.579 3594.659 C 1030.579 3596.784 1028.908 3598.557 1026.857 3598.612 C 1024.93 3598.665 1023.265 3597.223 1022.974 3595.247 L 1020.068 3575.575 L 1015.171 3575.575 L 1015.171 3570.258 Z " fill="rgb(37,19,111)"/><path d=" M 1029.724 3594.659 C 1029.724 3596.307 1028.428 3597.685 1026.837 3597.726 C 1025.34 3597.766 1024.047 3596.648 1023.818 3595.115 L 1021.024 3576.192 L 1020.804 3574.689 L 1016.026 3574.689 L 1016.026 3571.144 L 1020.282 3571.144 L 1019.983 3569.102 L 1019.494 3565.819 C 1019.475 3565.66 1019.459 3565.5 1019.459 3565.348 C 1019.473 3563.688 1020.746 3562.333 1022.347 3562.274 C 1023.846 3562.233 1025.141 3563.355 1025.368 3564.892 L 1029.69 3594.18 C 1029.711 3594.339 1029.722 3594.499 1029.724 3594.659 Z  M 1031.435 3594.659 C 1031.433 3594.411 1031.415 3594.164 1031.382 3593.918 L 1027.057 3564.621 C 1026.699 3562.205 1024.665 3560.441 1022.307 3560.502 C 1020.964 3560.54 1019.701 3561.174 1018.84 3562.243 C 1017.978 3563.312 1017.601 3564.712 1017.804 3566.089 L 1018.291 3569.371 L 1014.316 3569.371 L 1014.316 3576.462 L 1019.334 3576.462 L 1022.126 3595.386 C 1022.486 3597.803 1024.525 3599.566 1026.885 3599.498 C 1029.413 3599.422 1031.427 3597.28 1031.435 3594.659 Z " fill="rgb(31,13,102)"/><path d=" M 1044.264 3565.348 C 1044.277 3563.208 1045.921 3561.462 1047.986 3561.395 C 1049.912 3561.341 1051.576 3562.781 1051.869 3564.754 L 1053.966 3578.982 C 1055.543 3584.224 1058.061 3586.161 1059.41 3586.847 C 1058.401 3589.534 1055.943 3594.402 1052.803 3595.012 L 1052.101 3595.026 L 1051.927 3595.045 C 1050.062 3595.095 1048.393 3593.654 1048.106 3591.681 L 1044.31 3565.95 C 1044.276 3565.75 1044.264 3565.55 1044.264 3565.348 Z " fill="rgb(37,19,111)"/><path d=" M 1058.328 3587.25 C 1057.3 3589.714 1055.267 3593.439 1052.871 3594.092 L 1052.06 3594.14 L 1051.881 3594.159 C 1050.419 3594.15 1049.178 3593.046 1048.947 3591.55 L 1045.151 3565.819 C 1045.133 3565.66 1045.117 3565.5 1045.117 3565.348 C 1045.131 3563.684 1046.409 3562.328 1048.013 3562.274 C 1049.51 3562.239 1050.799 3563.359 1051.027 3564.892 L 1053.124 3579.114 L 1053.145 3579.252 L 1053.186 3579.376 C 1054.602 3584.057 1056.773 3586.246 1058.329 3587.25 M 1060.5 3586.335 C 1060.5 3586.335 1056.851 3585.582 1054.814 3578.851 L 1052.715 3564.621 C 1052.357 3562.205 1050.323 3560.441 1047.965 3560.502 C 1046.622 3560.54 1045.359 3561.174 1044.498 3562.243 C 1043.636 3563.312 1043.259 3564.712 1043.461 3566.089 L 1047.264 3591.812 C 1047.62 3594.229 1049.655 3595.995 1052.014 3595.932 C 1052.067 3595.925 1052.115 3595.912 1052.161 3595.912 L 1052.154 3595.96 C 1057.412 3595.96 1060.5 3586.335 1060.5 3586.335 Z " fill="rgb(31,13,102)"/><path d=" M 1010.039 3567.599 C 1010.041 3565.152 1011.955 3563.169 1014.316 3563.167 L 1015.171 3563.167 L 1015.171 3596.846 L 1014.316 3596.846 C 1011.957 3596.846 1010.039 3594.859 1010.039 3592.415 L 1010.039 3567.599 Z " fill="rgb(223,240,254)"/><path d=" M 1014.316 3595.96 C 1012.431 3595.96 1010.895 3594.368 1010.895 3592.415 L 1010.895 3567.599 C 1010.895 3565.646 1012.431 3564.054 1014.316 3564.054 L 1014.316 3595.96 Z  M 1016.026 3597.733 L 1016.026 3562.281 L 1014.316 3562.281 C 1011.482 3562.281 1009.184 3564.662 1009.184 3567.599 L 1009.184 3592.415 C 1009.184 3595.352 1011.482 3597.733 1014.316 3597.733 L 1016.026 3597.733 Z  M 1002.342 3589.756 L 1002.342 3579.121 C 1002.341 3578.885 1002.431 3578.659 1002.592 3578.493 C 1002.752 3578.326 1002.97 3578.233 1003.197 3578.234 C 1003.671 3578.234 1004.053 3578.63 1004.053 3579.121 L 1004.053 3589.756 C 1004.053 3590.246 1003.67 3590.642 1003.197 3590.642 C 1002.725 3590.642 1002.342 3590.246 1002.342 3589.756 Z  M 1002.342 3573.803 L 1002.342 3570.258 C 1002.341 3570.022 1002.431 3569.796 1002.592 3569.63 C 1002.752 3569.464 1002.97 3569.371 1003.197 3569.371 C 1003.671 3569.371 1004.053 3569.767 1004.053 3570.258 L 1004.053 3573.803 C 1004.053 3574.292 1003.67 3574.689 1003.197 3574.689 C 1002.725 3574.689 1002.342 3574.292 1002.342 3573.803 Z  M 1005.763 3589.756 L 1005.763 3579.121 C 1005.762 3578.885 1005.852 3578.659 1006.013 3578.493 C 1006.173 3578.326 1006.391 3578.233 1006.618 3578.234 C 1007.092 3578.234 1007.474 3578.63 1007.474 3579.121 L 1007.474 3589.756 C 1007.474 3590.246 1007.091 3590.642 1006.618 3590.642 C 1006.146 3590.642 1005.763 3590.246 1005.763 3589.756 Z  M 1005.763 3573.803 L 1005.763 3570.258 C 1005.762 3570.022 1005.852 3569.796 1006.013 3569.63 C 1006.173 3569.464 1006.391 3569.371 1006.618 3569.371 C 1007.092 3569.371 1007.474 3569.767 1007.474 3570.258 L 1007.474 3573.803 C 1007.474 3574.292 1007.091 3574.689 1006.618 3574.689 C 1006.146 3574.689 1005.763 3574.292 1005.763 3573.803 Z " fill="rgb(71,136,199)"/><path d=" M 1030.579 3565.348 C 1030.593 3563.208 1032.237 3561.462 1034.302 3561.395 C 1036.228 3561.341 1037.891 3562.781 1038.184 3564.754 L 1042.505 3594.049 C 1042.539 3594.257 1042.553 3594.457 1042.553 3594.659 C 1042.553 3596.784 1040.882 3598.557 1038.831 3598.612 C 1036.903 3598.665 1035.239 3597.223 1034.948 3595.247 L 1030.626 3565.95 C 1030.591 3565.75 1030.579 3565.55 1030.579 3565.348 Z " fill="rgb(37,19,111)"/><path d=" M 1041.698 3594.659 C 1041.698 3596.307 1040.401 3597.685 1038.811 3597.726 C 1037.314 3597.766 1036.021 3596.648 1035.791 3595.115 L 1031.467 3565.819 C 1031.448 3565.66 1031.433 3565.5 1031.433 3565.348 C 1031.447 3563.688 1032.719 3562.333 1034.32 3562.274 C 1035.82 3562.233 1037.115 3563.355 1037.341 3564.892 L 1041.664 3594.18 C 1041.685 3594.339 1041.696 3594.499 1041.698 3594.659 Z  M 1043.408 3594.659 C 1043.407 3594.411 1043.389 3594.164 1043.355 3593.918 L 1039.031 3564.621 C 1038.673 3562.205 1036.639 3560.441 1034.281 3560.502 C 1032.938 3560.54 1031.675 3561.174 1030.814 3562.243 C 1029.952 3563.312 1029.575 3564.712 1029.777 3566.089 L 1034.1 3595.386 C 1034.459 3597.803 1036.499 3599.566 1038.858 3599.498 C 1041.387 3599.422 1043.4 3597.28 1043.408 3594.659 Z " fill="rgb(31,13,102)"/></g></g><g><rect x="970.667" y="3569.833" width="30" height="19.667" transform="matrix(0,1,-1,0,4565.333,2594)" fill="rgb(116,116,116)"/></g></g></svg>