<?xml version="1.0" standalone="no"?><!-- Generator: Gravit.io --><svg xmlns="http://www.w3.org/2000/svg" xmlns:xlink="http://www.w3.org/1999/xlink" style="isolation:isolate" viewBox="976 3215.25 100 100" width="100" height="100"><g><g><path d="M 985.5 3215.25 L 1066.5 3215.25 C 1071.743 3215.25 1076 3219.507 1076 3224.75 L 1076 3305.75 C 1076 3310.993 1071.743 3315.25 1066.5 3315.25 L 985.5 3315.25 C 980.257 3315.25 976 3310.993 976 3305.75 L 976 3224.75 C 976 3219.507 980.257 3215.25 985.5 3215.25 Z" style="stroke:none;fill:#2E2E2E;stroke-miterlimit:10;"/><g><path d=" M 1023.522 3279.39 C 1023.522 3279.035 1023.569 3278.682 1023.663 3278.344 L 1031.16 3249.747 C 1031.671 3247.821 1033.479 3246.586 1035.388 3246.859 C 1036.473 3247.023 1037.438 3247.659 1038.041 3248.607 C 1038.643 3249.555 1038.826 3250.726 1038.542 3251.823 L 1031.038 3280.421 C 1030.528 3282.347 1028.719 3283.582 1026.81 3283.309 C 1024.931 3283.022 1023.535 3281.358 1023.522 3279.39 Z " fill="rgb(106,33,33)"/><path d=" M 1037.822 3250.779 C 1037.822 3251.048 1037.788 3251.326 1037.715 3251.589 L 1030.217 3280.186 C 1029.82 3281.682 1028.413 3282.642 1026.93 3282.428 C 1025.471 3282.208 1024.387 3280.917 1024.378 3279.39 C 1024.378 3279.111 1024.412 3278.842 1024.484 3278.572 L 1031.989 3249.976 C 1032.383 3248.479 1033.788 3247.518 1035.27 3247.731 C 1036.731 3247.953 1037.817 3249.248 1037.822 3250.779 Z  M 1039.533 3250.779 C 1039.527 3248.352 1037.791 3246.304 1035.47 3245.984 C 1033.149 3245.664 1030.957 3247.171 1030.339 3249.511 L 1022.835 3278.108 C 1022.157 3280.693 1023.63 3283.358 1026.125 3284.059 C 1028.619 3284.761 1031.191 3283.235 1031.868 3280.65 L 1039.367 3252.051 C 1039.478 3251.636 1039.534 3251.207 1039.533 3250.777 L 1039.533 3250.779 Z " fill="rgb(94,0,0)"/><path d=" M 1035.489 3279.39 C 1035.489 3278.959 1035.557 3278.531 1035.689 3278.122 L 1044.789 3250.03 C 1045.405 3248.137 1047.283 3247.012 1049.173 3247.407 C 1050.247 3247.635 1051.175 3248.328 1051.723 3249.311 C 1052.271 3250.294 1052.386 3251.474 1052.04 3252.551 L 1042.94 3280.65 C 1042.947 3282.225 1042.054 3283.654 1040.665 3284.292 C 1039.276 3284.931 1037.654 3284.656 1036.532 3283.594 C 1035.411 3282.532 1035.002 3280.882 1035.491 3279.391 L 1035.489 3279.39 Z " fill="rgb(106,33,33)"/><path d=" M 1051.385 3251.284 C 1051.385 3251.617 1051.332 3251.948 1051.231 3252.267 L 1042.131 3280.365 C 1041.609 3281.976 1039.925 3282.845 1038.37 3282.304 C 1036.814 3281.763 1035.976 3280.018 1036.498 3278.406 L 1045.598 3250.307 C 1046.078 3248.837 1047.538 3247.965 1049.006 3248.272 C 1050.386 3248.567 1051.379 3249.825 1051.383 3251.285 M 1053.094 3251.285 C 1053.091 3248.979 1051.522 3246.993 1049.341 3246.535 C 1047.028 3246.05 1044.73 3247.428 1043.982 3249.747 L 1034.882 3277.846 C 1034.714 3278.358 1034.634 3278.877 1034.634 3279.388 C 1034.641 3281.762 1036.304 3283.782 1038.565 3284.164 C 1040.826 3284.545 1043.021 3283.176 1043.754 3280.926 L 1052.854 3252.835 C 1053.015 3252.335 1053.096 3251.811 1053.094 3251.284 L 1053.094 3251.285 Z  M 1001.132 3270.575 C 999.298 3270.574 997.603 3269.56 996.687 3267.913 C 995.77 3266.267 995.771 3264.239 996.689 3262.594 C 997.606 3260.948 999.301 3259.935 1001.135 3259.936 C 1003.97 3259.937 1006.268 3262.319 1006.267 3265.257 C 1006.266 3268.195 1003.967 3270.576 1001.132 3270.575 L 1001.132 3270.575 Z " fill="rgb(94,0,0)"/><path d=" M 1000.276 3258.167 C 1000.276 3256.698 1001.425 3255.508 1002.842 3255.508 L 1010.539 3255.508 L 1010.539 3275.006 L 1002.842 3275.006 C 1001.425 3275.006 1000.276 3273.816 1000.276 3272.347 L 1000.276 3258.167 Z " fill="rgb(223,240,254)"/><path d=" M 1009.684 3274.12 L 1002.842 3274.12 C 1001.901 3274.12 1001.132 3273.322 1001.132 3272.347 L 1001.132 3258.167 C 1001.132 3257.192 1001.901 3256.394 1002.842 3256.394 L 1009.684 3256.394 L 1009.684 3274.12 Z  M 1011.395 3275.892 L 1011.395 3254.621 L 1002.842 3254.621 C 1000.953 3254.621 999.421 3256.209 999.421 3258.167 L 999.421 3272.347 C 999.421 3274.305 1000.953 3275.892 1002.842 3275.892 L 1011.395 3275.892 Z " fill="rgb(71,136,199)"/><path d=" M 1024.224 3269.688 L 1024.224 3275.006 L 1015.671 3275.006 L 1015.671 3269.688 L 1024.224 3269.688 Z " fill="rgb(106,33,33)"/><path d=" M 1023.368 3274.12 L 1016.526 3274.12 L 1016.526 3270.575 L 1023.368 3270.575 L 1023.368 3274.12 Z  M 1025.079 3275.892 L 1025.079 3268.802 L 1014.816 3268.802 L 1014.816 3275.892 L 1025.079 3275.892 Z " fill="rgb(94,0,0)"/><path d=" M 1015.671 3255.508 L 1019.787 3255.508 L 1019.154 3251.2 C 1019.119 3251 1019.106 3250.8 1019.106 3250.598 C 1019.12 3248.458 1020.764 3246.712 1022.828 3246.645 C 1024.754 3246.591 1026.418 3248.031 1026.711 3250.004 L 1031.032 3279.299 C 1031.066 3279.507 1031.079 3279.707 1031.079 3279.909 C 1031.079 3282.034 1029.408 3283.807 1027.357 3283.862 C 1025.43 3283.915 1023.765 3282.473 1023.474 3280.497 L 1020.568 3260.825 L 1015.671 3260.825 L 1015.671 3255.508 Z " fill="rgb(106,33,33)"/><path d=" M 1030.224 3279.909 C 1030.224 3281.557 1028.928 3282.935 1027.337 3282.976 C 1025.84 3283.016 1024.547 3281.898 1024.318 3280.365 L 1021.524 3261.442 L 1021.304 3259.939 L 1016.526 3259.939 L 1016.526 3256.394 L 1020.782 3256.394 L 1020.483 3254.352 L 1019.994 3251.069 C 1019.975 3250.91 1019.959 3250.75 1019.959 3250.598 C 1019.973 3248.938 1021.246 3247.583 1022.847 3247.524 C 1024.346 3247.483 1025.641 3248.605 1025.868 3250.142 L 1030.19 3279.43 C 1030.211 3279.589 1030.222 3279.749 1030.224 3279.909 Z  M 1031.935 3279.909 C 1031.933 3279.661 1031.915 3279.414 1031.882 3279.168 L 1027.557 3249.871 C 1027.199 3247.455 1025.165 3245.691 1022.807 3245.752 C 1021.464 3245.79 1020.201 3246.424 1019.34 3247.493 C 1018.478 3248.562 1018.101 3249.962 1018.304 3251.339 L 1018.791 3254.621 L 1014.816 3254.621 L 1014.816 3261.712 L 1019.834 3261.712 L 1022.626 3280.636 C 1022.986 3283.053 1025.025 3284.816 1027.385 3284.748 C 1029.913 3284.672 1031.927 3282.53 1031.935 3279.909 Z " fill="rgb(94,0,0)"/><path d=" M 1044.764 3250.598 C 1044.777 3248.458 1046.421 3246.712 1048.486 3246.645 C 1050.412 3246.591 1052.076 3248.031 1052.369 3250.004 L 1054.466 3264.232 C 1056.043 3269.474 1058.561 3271.411 1059.91 3272.097 C 1058.901 3274.784 1056.443 3279.652 1053.303 3280.262 L 1052.601 3280.276 L 1052.427 3280.295 C 1050.562 3280.345 1048.893 3278.904 1048.606 3276.931 L 1044.81 3251.2 C 1044.776 3251 1044.764 3250.8 1044.764 3250.598 Z " fill="rgb(106,33,33)"/><path d=" M 1058.828 3272.5 C 1057.8 3274.964 1055.767 3278.689 1053.371 3279.342 L 1052.56 3279.39 L 1052.381 3279.409 C 1050.919 3279.4 1049.678 3278.296 1049.447 3276.8 L 1045.651 3251.069 C 1045.633 3250.91 1045.617 3250.75 1045.617 3250.598 C 1045.631 3248.934 1046.909 3247.578 1048.513 3247.524 C 1050.01 3247.489 1051.299 3248.609 1051.527 3250.142 L 1053.624 3264.364 L 1053.645 3264.502 L 1053.686 3264.626 C 1055.102 3269.307 1057.273 3271.496 1058.829 3272.5 M 1061 3271.585 C 1061 3271.585 1057.351 3270.832 1055.314 3264.101 L 1053.215 3249.871 C 1052.857 3247.455 1050.823 3245.691 1048.465 3245.752 C 1047.122 3245.79 1045.859 3246.424 1044.998 3247.493 C 1044.136 3248.562 1043.759 3249.962 1043.961 3251.339 L 1047.764 3277.062 C 1048.12 3279.479 1050.155 3281.245 1052.514 3281.182 C 1052.567 3281.175 1052.615 3281.162 1052.661 3281.162 L 1052.654 3281.21 C 1057.912 3281.21 1061 3271.585 1061 3271.585 Z " fill="rgb(94,0,0)"/><path d=" M 1010.539 3252.849 C 1010.541 3250.402 1012.455 3248.419 1014.816 3248.417 L 1015.671 3248.417 L 1015.671 3282.096 L 1014.816 3282.096 C 1012.457 3282.096 1010.539 3280.109 1010.539 3277.665 L 1010.539 3252.849 Z " fill="rgb(223,240,254)"/><path d=" M 1014.816 3281.21 C 1012.931 3281.21 1011.395 3279.618 1011.395 3277.665 L 1011.395 3252.849 C 1011.395 3250.896 1012.931 3249.304 1014.816 3249.304 L 1014.816 3281.21 Z  M 1016.526 3282.983 L 1016.526 3247.531 L 1014.816 3247.531 C 1011.982 3247.531 1009.684 3249.912 1009.684 3252.849 L 1009.684 3277.665 C 1009.684 3280.602 1011.982 3282.983 1014.816 3282.983 L 1016.526 3282.983 Z  M 1002.842 3275.006 L 1002.842 3264.371 C 1002.841 3264.135 1002.931 3263.909 1003.092 3263.743 C 1003.252 3263.576 1003.47 3263.483 1003.697 3263.484 C 1004.171 3263.484 1004.553 3263.88 1004.553 3264.371 L 1004.553 3275.006 C 1004.553 3275.496 1004.17 3275.892 1003.697 3275.892 C 1003.225 3275.892 1002.842 3275.496 1002.842 3275.006 Z  M 1002.842 3259.053 L 1002.842 3255.508 C 1002.841 3255.272 1002.931 3255.046 1003.092 3254.88 C 1003.252 3254.714 1003.47 3254.621 1003.697 3254.621 C 1004.171 3254.621 1004.553 3255.017 1004.553 3255.508 L 1004.553 3259.053 C 1004.553 3259.542 1004.17 3259.939 1003.697 3259.939 C 1003.225 3259.939 1002.842 3259.542 1002.842 3259.053 Z  M 1006.263 3275.006 L 1006.263 3264.371 C 1006.262 3264.135 1006.352 3263.909 1006.513 3263.743 C 1006.673 3263.576 1006.891 3263.483 1007.118 3263.484 C 1007.592 3263.484 1007.974 3263.88 1007.974 3264.371 L 1007.974 3275.006 C 1007.974 3275.496 1007.591 3275.892 1007.118 3275.892 C 1006.646 3275.892 1006.263 3275.496 1006.263 3275.006 Z  M 1006.263 3259.053 L 1006.263 3255.508 C 1006.262 3255.272 1006.352 3255.046 1006.513 3254.88 C 1006.673 3254.714 1006.891 3254.621 1007.118 3254.621 C 1007.592 3254.621 1007.974 3255.017 1007.974 3255.508 L 1007.974 3259.053 C 1007.974 3259.542 1007.591 3259.939 1007.118 3259.939 C 1006.646 3259.939 1006.263 3259.542 1006.263 3259.053 Z " fill="rgb(71,136,199)"/><path d=" M 1031.079 3250.598 C 1031.093 3248.458 1032.737 3246.712 1034.802 3246.645 C 1036.728 3246.591 1038.391 3248.031 1038.684 3250.004 L 1043.005 3279.299 C 1043.039 3279.507 1043.053 3279.707 1043.053 3279.909 C 1043.053 3282.034 1041.382 3283.807 1039.331 3283.862 C 1037.403 3283.915 1035.739 3282.473 1035.448 3280.497 L 1031.126 3251.2 C 1031.091 3251 1031.079 3250.8 1031.079 3250.598 Z " fill="rgb(106,33,33)"/><path d=" M 1042.198 3279.909 C 1042.198 3281.557 1040.901 3282.935 1039.311 3282.976 C 1037.814 3283.016 1036.521 3281.898 1036.291 3280.365 L 1031.967 3251.069 C 1031.948 3250.91 1031.933 3250.75 1031.933 3250.598 C 1031.947 3248.938 1033.219 3247.583 1034.82 3247.524 C 1036.32 3247.483 1037.615 3248.605 1037.841 3250.142 L 1042.164 3279.43 C 1042.185 3279.589 1042.196 3279.749 1042.198 3279.909 Z  M 1043.908 3279.909 C 1043.907 3279.661 1043.889 3279.414 1043.855 3279.168 L 1039.531 3249.871 C 1039.173 3247.455 1037.139 3245.691 1034.781 3245.752 C 1033.438 3245.79 1032.175 3246.424 1031.314 3247.493 C 1030.452 3248.562 1030.075 3249.962 1030.277 3251.339 L 1034.6 3280.636 C 1034.959 3283.053 1036.999 3284.816 1039.358 3284.748 C 1041.887 3284.672 1043.9 3282.53 1043.908 3279.909 Z " fill="rgb(94,0,0)"/></g></g><g><rect x="971.167" y="3255.083" width="30" height="19.667" transform="matrix(0,1,-1,0,4251.083,2278.75)" fill="rgb(116,116,116)"/></g></g></svg>