<?xml version="1.0" standalone="no"?><!-- Generator: Gravit.io --><svg xmlns="http://www.w3.org/2000/svg" xmlns:xlink="http://www.w3.org/1999/xlink" style="isolation:isolate" viewBox="976 3320.25 100 100" width="100" height="100"><g><g><path d="M 985.5 3320.25 L 1066.5 3320.25 C 1071.743 3320.25 1076 3324.507 1076 3329.75 L 1076 3410.75 C 1076 3415.993 1071.743 3420.25 1066.5 3420.25 L 985.5 3420.25 C 980.257 3420.25 976 3415.993 976 3410.75 L 976 3329.75 C 976 3324.507 980.257 3320.25 985.5 3320.25 Z" style="stroke:none;fill:#2E2E2E;stroke-miterlimit:10;"/><g><path d=" M 1023.522 3384.39 C 1023.522 3384.035 1023.569 3383.682 1023.663 3383.344 L 1031.16 3354.747 C 1031.671 3352.821 1033.479 3351.586 1035.388 3351.859 C 1036.473 3352.023 1037.438 3352.659 1038.041 3353.607 C 1038.643 3354.555 1038.826 3355.726 1038.542 3356.823 L 1031.038 3385.421 C 1030.528 3387.347 1028.719 3388.582 1026.81 3388.309 C 1024.931 3388.022 1023.535 3386.358 1023.522 3384.39 Z " fill="rgb(182,220,254)"/><path d=" M 1037.822 3355.779 C 1037.822 3356.048 1037.788 3356.326 1037.715 3356.589 L 1030.217 3385.186 C 1029.82 3386.682 1028.413 3387.642 1026.93 3387.428 C 1025.471 3387.208 1024.387 3385.917 1024.378 3384.39 C 1024.378 3384.111 1024.412 3383.842 1024.484 3383.572 L 1031.989 3354.976 C 1032.383 3353.479 1033.788 3352.518 1035.27 3352.731 C 1036.731 3352.953 1037.817 3354.248 1037.822 3355.779 Z  M 1039.533 3355.779 C 1039.527 3353.352 1037.791 3351.304 1035.47 3350.984 C 1033.149 3350.664 1030.957 3352.171 1030.339 3354.511 L 1022.835 3383.108 C 1022.157 3385.693 1023.63 3388.358 1026.125 3389.059 C 1028.619 3389.761 1031.191 3388.235 1031.868 3385.65 L 1039.367 3357.051 C 1039.478 3356.636 1039.534 3356.207 1039.533 3355.777 L 1039.533 3355.779 Z " fill="rgb(71,136,199)"/><path d=" M 1035.489 3384.39 C 1035.489 3383.959 1035.557 3383.531 1035.689 3383.122 L 1044.789 3355.03 C 1045.405 3353.137 1047.283 3352.012 1049.173 3352.407 C 1050.247 3352.635 1051.175 3353.328 1051.723 3354.311 C 1052.271 3355.294 1052.386 3356.474 1052.04 3357.551 L 1042.94 3385.65 C 1042.947 3387.225 1042.054 3388.654 1040.665 3389.292 C 1039.276 3389.931 1037.654 3389.656 1036.532 3388.594 C 1035.411 3387.532 1035.002 3385.882 1035.491 3384.391 L 1035.489 3384.39 Z " fill="rgb(182,220,254)"/><path d=" M 1051.385 3356.284 C 1051.385 3356.617 1051.332 3356.948 1051.231 3357.267 L 1042.131 3385.365 C 1041.609 3386.976 1039.925 3387.845 1038.37 3387.304 C 1036.814 3386.763 1035.976 3385.018 1036.498 3383.406 L 1045.598 3355.307 C 1046.078 3353.837 1047.538 3352.965 1049.006 3353.272 C 1050.386 3353.567 1051.379 3354.825 1051.383 3356.285 M 1053.094 3356.285 C 1053.091 3353.979 1051.522 3351.993 1049.341 3351.535 C 1047.028 3351.05 1044.73 3352.428 1043.982 3354.747 L 1034.882 3382.846 C 1034.714 3383.358 1034.634 3383.877 1034.634 3384.388 C 1034.641 3386.762 1036.304 3388.782 1038.565 3389.164 C 1040.826 3389.545 1043.021 3388.176 1043.754 3385.926 L 1052.854 3357.835 C 1053.015 3357.335 1053.096 3356.811 1053.094 3356.284 L 1053.094 3356.285 Z  M 1001.132 3375.575 C 999.298 3375.574 997.603 3374.56 996.687 3372.913 C 995.77 3371.267 995.771 3369.239 996.689 3367.594 C 997.606 3365.948 999.301 3364.935 1001.135 3364.936 C 1003.97 3364.937 1006.268 3367.319 1006.267 3370.257 C 1006.266 3373.195 1003.967 3375.576 1001.132 3375.575 L 1001.132 3375.575 Z " fill="rgb(71,136,199)"/><path d=" M 1000.276 3363.167 C 1000.276 3361.698 1001.425 3360.508 1002.842 3360.508 L 1010.539 3360.508 L 1010.539 3380.006 L 1002.842 3380.006 C 1001.425 3380.006 1000.276 3378.816 1000.276 3377.347 L 1000.276 3363.167 Z " fill="rgb(223,240,254)"/><path d=" M 1009.684 3379.12 L 1002.842 3379.12 C 1001.901 3379.12 1001.132 3378.322 1001.132 3377.347 L 1001.132 3363.167 C 1001.132 3362.192 1001.901 3361.394 1002.842 3361.394 L 1009.684 3361.394 L 1009.684 3379.12 Z  M 1011.395 3380.892 L 1011.395 3359.621 L 1002.842 3359.621 C 1000.953 3359.621 999.421 3361.209 999.421 3363.167 L 999.421 3377.347 C 999.421 3379.305 1000.953 3380.892 1002.842 3380.892 L 1011.395 3380.892 Z " fill="rgb(71,136,199)"/><path d=" M 1024.224 3374.688 L 1024.224 3380.006 L 1015.671 3380.006 L 1015.671 3374.688 L 1024.224 3374.688 Z " fill="rgb(182,220,254)"/><path d=" M 1023.368 3379.12 L 1016.526 3379.12 L 1016.526 3375.575 L 1023.368 3375.575 L 1023.368 3379.12 Z  M 1025.079 3380.892 L 1025.079 3373.802 L 1014.816 3373.802 L 1014.816 3380.892 L 1025.079 3380.892 Z " fill="rgb(71,136,199)"/><path d=" M 1015.671 3360.508 L 1019.787 3360.508 L 1019.154 3356.2 C 1019.119 3356 1019.106 3355.8 1019.106 3355.598 C 1019.12 3353.458 1020.764 3351.712 1022.828 3351.645 C 1024.754 3351.591 1026.418 3353.031 1026.711 3355.004 L 1031.032 3384.299 C 1031.066 3384.507 1031.079 3384.707 1031.079 3384.909 C 1031.079 3387.034 1029.408 3388.807 1027.357 3388.862 C 1025.43 3388.915 1023.765 3387.473 1023.474 3385.497 L 1020.568 3365.825 L 1015.671 3365.825 L 1015.671 3360.508 Z " fill="rgb(182,220,254)"/><path d=" M 1030.224 3384.909 C 1030.224 3386.557 1028.928 3387.935 1027.337 3387.976 C 1025.84 3388.016 1024.547 3386.898 1024.318 3385.365 L 1021.524 3366.442 L 1021.304 3364.939 L 1016.526 3364.939 L 1016.526 3361.394 L 1020.782 3361.394 L 1020.483 3359.352 L 1019.994 3356.069 C 1019.975 3355.91 1019.959 3355.75 1019.959 3355.598 C 1019.973 3353.938 1021.246 3352.583 1022.847 3352.524 C 1024.346 3352.483 1025.641 3353.605 1025.868 3355.142 L 1030.19 3384.43 C 1030.211 3384.589 1030.222 3384.749 1030.224 3384.909 Z  M 1031.935 3384.909 C 1031.933 3384.661 1031.915 3384.414 1031.882 3384.168 L 1027.557 3354.871 C 1027.199 3352.455 1025.165 3350.691 1022.807 3350.752 C 1021.464 3350.79 1020.201 3351.424 1019.34 3352.493 C 1018.478 3353.562 1018.101 3354.962 1018.304 3356.339 L 1018.791 3359.621 L 1014.816 3359.621 L 1014.816 3366.712 L 1019.834 3366.712 L 1022.626 3385.636 C 1022.986 3388.053 1025.025 3389.816 1027.385 3389.748 C 1029.913 3389.672 1031.927 3387.53 1031.935 3384.909 Z " fill="rgb(71,136,199)"/><path d=" M 1044.764 3355.598 C 1044.777 3353.458 1046.421 3351.712 1048.486 3351.645 C 1050.412 3351.591 1052.076 3353.031 1052.369 3355.004 L 1054.466 3369.232 C 1056.043 3374.474 1058.561 3376.411 1059.91 3377.097 C 1058.901 3379.784 1056.443 3384.652 1053.303 3385.262 L 1052.601 3385.276 L 1052.427 3385.295 C 1050.562 3385.345 1048.893 3383.904 1048.606 3381.931 L 1044.81 3356.2 C 1044.776 3356 1044.764 3355.8 1044.764 3355.598 Z " fill="rgb(182,220,254)"/><path d=" M 1058.828 3377.5 C 1057.8 3379.964 1055.767 3383.689 1053.371 3384.342 L 1052.56 3384.39 L 1052.381 3384.409 C 1050.919 3384.4 1049.678 3383.296 1049.447 3381.8 L 1045.651 3356.069 C 1045.633 3355.91 1045.617 3355.75 1045.617 3355.598 C 1045.631 3353.934 1046.909 3352.578 1048.513 3352.524 C 1050.01 3352.489 1051.299 3353.609 1051.527 3355.142 L 1053.624 3369.364 L 1053.645 3369.502 L 1053.686 3369.626 C 1055.102 3374.307 1057.273 3376.496 1058.829 3377.5 M 1061 3376.585 C 1061 3376.585 1057.351 3375.832 1055.314 3369.101 L 1053.215 3354.871 C 1052.857 3352.455 1050.823 3350.691 1048.465 3350.752 C 1047.122 3350.79 1045.859 3351.424 1044.998 3352.493 C 1044.136 3353.562 1043.759 3354.962 1043.961 3356.339 L 1047.764 3382.062 C 1048.12 3384.479 1050.155 3386.245 1052.514 3386.182 C 1052.567 3386.175 1052.615 3386.162 1052.661 3386.162 L 1052.654 3386.21 C 1057.912 3386.21 1061 3376.585 1061 3376.585 Z " fill="rgb(71,136,199)"/><path d=" M 1010.539 3357.849 C 1010.541 3355.402 1012.455 3353.419 1014.816 3353.417 L 1015.671 3353.417 L 1015.671 3387.096 L 1014.816 3387.096 C 1012.457 3387.096 1010.539 3385.109 1010.539 3382.665 L 1010.539 3357.849 Z " fill="rgb(223,240,254)"/><path d=" M 1014.816 3386.21 C 1012.931 3386.21 1011.395 3384.618 1011.395 3382.665 L 1011.395 3357.849 C 1011.395 3355.896 1012.931 3354.304 1014.816 3354.304 L 1014.816 3386.21 Z  M 1016.526 3387.983 L 1016.526 3352.531 L 1014.816 3352.531 C 1011.982 3352.531 1009.684 3354.912 1009.684 3357.849 L 1009.684 3382.665 C 1009.684 3385.602 1011.982 3387.983 1014.816 3387.983 L 1016.526 3387.983 Z  M 1002.842 3380.006 L 1002.842 3369.371 C 1002.841 3369.135 1002.931 3368.909 1003.092 3368.743 C 1003.252 3368.576 1003.47 3368.483 1003.697 3368.484 C 1004.171 3368.484 1004.553 3368.88 1004.553 3369.371 L 1004.553 3380.006 C 1004.553 3380.496 1004.17 3380.892 1003.697 3380.892 C 1003.225 3380.892 1002.842 3380.496 1002.842 3380.006 Z  M 1002.842 3364.053 L 1002.842 3360.508 C 1002.841 3360.272 1002.931 3360.046 1003.092 3359.88 C 1003.252 3359.714 1003.47 3359.621 1003.697 3359.621 C 1004.171 3359.621 1004.553 3360.017 1004.553 3360.508 L 1004.553 3364.053 C 1004.553 3364.542 1004.17 3364.939 1003.697 3364.939 C 1003.225 3364.939 1002.842 3364.542 1002.842 3364.053 Z  M 1006.263 3380.006 L 1006.263 3369.371 C 1006.262 3369.135 1006.352 3368.909 1006.513 3368.743 C 1006.673 3368.576 1006.891 3368.483 1007.118 3368.484 C 1007.592 3368.484 1007.974 3368.88 1007.974 3369.371 L 1007.974 3380.006 C 1007.974 3380.496 1007.591 3380.892 1007.118 3380.892 C 1006.646 3380.892 1006.263 3380.496 1006.263 3380.006 Z  M 1006.263 3364.053 L 1006.263 3360.508 C 1006.262 3360.272 1006.352 3360.046 1006.513 3359.88 C 1006.673 3359.714 1006.891 3359.621 1007.118 3359.621 C 1007.592 3359.621 1007.974 3360.017 1007.974 3360.508 L 1007.974 3364.053 C 1007.974 3364.542 1007.591 3364.939 1007.118 3364.939 C 1006.646 3364.939 1006.263 3364.542 1006.263 3364.053 Z " fill="rgb(71,136,199)"/><path d=" M 1031.079 3355.598 C 1031.093 3353.458 1032.737 3351.712 1034.802 3351.645 C 1036.728 3351.591 1038.391 3353.031 1038.684 3355.004 L 1043.005 3384.299 C 1043.039 3384.507 1043.053 3384.707 1043.053 3384.909 C 1043.053 3387.034 1041.382 3388.807 1039.331 3388.862 C 1037.403 3388.915 1035.739 3387.473 1035.448 3385.497 L 1031.126 3356.2 C 1031.091 3356 1031.079 3355.8 1031.079 3355.598 Z " fill="rgb(182,220,254)"/><path d=" M 1042.198 3384.909 C 1042.198 3386.557 1040.901 3387.935 1039.311 3387.976 C 1037.814 3388.016 1036.521 3386.898 1036.291 3385.365 L 1031.967 3356.069 C 1031.948 3355.91 1031.933 3355.75 1031.933 3355.598 C 1031.947 3353.938 1033.219 3352.583 1034.82 3352.524 C 1036.32 3352.483 1037.615 3353.605 1037.841 3355.142 L 1042.164 3384.43 C 1042.185 3384.589 1042.196 3384.749 1042.198 3384.909 Z  M 1043.908 3384.909 C 1043.907 3384.661 1043.889 3384.414 1043.855 3384.168 L 1039.531 3354.871 C 1039.173 3352.455 1037.139 3350.691 1034.781 3350.752 C 1033.438 3350.79 1032.175 3351.424 1031.314 3352.493 C 1030.452 3353.562 1030.075 3354.962 1030.277 3356.339 L 1034.6 3385.636 C 1034.959 3388.053 1036.999 3389.816 1039.358 3389.748 C 1041.887 3389.672 1043.9 3387.53 1043.908 3384.909 Z " fill="rgb(71,136,199)"/></g></g><g><rect x="971.167" y="3360.083" width="30" height="19.667" transform="matrix(0,1,-1,0,4356.083,2383.75)" fill="rgb(116,116,116)"/><rect x="976.167" y="3360.083" width="20" height="19.667" transform="matrix(0,1,-1,0,4356.083,2383.75)" fill="rgb(84,183,183)"/></g></g></svg>