<?xml version="1.0" standalone="no"?><!-- Generator: Gravit.io --><svg xmlns="http://www.w3.org/2000/svg" xmlns:xlink="http://www.w3.org/1999/xlink" style="isolation:isolate" viewBox="976 3424.75 100 100" width="100" height="100"><g><g><path d="M 985.5 3424.75 L 1066.5 3424.75 C 1071.743 3424.75 1076 3429.007 1076 3434.25 L 1076 3515.25 C 1076 3520.493 1071.743 3524.75 1066.5 3524.75 L 985.5 3524.75 C 980.257 3524.75 976 3520.493 976 3515.25 L 976 3434.25 C 976 3429.007 980.257 3424.75 985.5 3424.75 Z" style="stroke:none;fill:#2E2E2E;stroke-miterlimit:10;"/><g><path d=" M 1023.522 3488.89 C 1023.522 3488.535 1023.569 3488.182 1023.663 3487.844 L 1031.16 3459.247 C 1031.671 3457.321 1033.479 3456.086 1035.388 3456.359 C 1036.473 3456.523 1037.438 3457.159 1038.041 3458.107 C 1038.643 3459.055 1038.826 3460.226 1038.542 3461.323 L 1031.038 3489.921 C 1030.528 3491.847 1028.719 3493.082 1026.81 3492.809 C 1024.931 3492.522 1023.535 3490.858 1023.522 3488.89 Z " fill="rgb(140,94,24)"/><path d=" M 1037.822 3460.279 C 1037.822 3460.548 1037.788 3460.826 1037.715 3461.089 L 1030.217 3489.686 C 1029.82 3491.182 1028.413 3492.142 1026.93 3491.928 C 1025.471 3491.708 1024.387 3490.417 1024.378 3488.89 C 1024.378 3488.611 1024.412 3488.342 1024.484 3488.072 L 1031.989 3459.476 C 1032.383 3457.979 1033.788 3457.018 1035.27 3457.231 C 1036.731 3457.453 1037.817 3458.748 1037.822 3460.279 Z  M 1039.533 3460.279 C 1039.527 3457.852 1037.791 3455.804 1035.47 3455.484 C 1033.149 3455.164 1030.957 3456.671 1030.339 3459.011 L 1022.835 3487.608 C 1022.157 3490.193 1023.63 3492.858 1026.125 3493.559 C 1028.619 3494.261 1031.191 3492.735 1031.868 3490.15 L 1039.367 3461.551 C 1039.478 3461.136 1039.534 3460.707 1039.533 3460.277 L 1039.533 3460.279 Z " fill="rgb(128,84,19)"/><path d=" M 1035.489 3488.89 C 1035.489 3488.459 1035.557 3488.031 1035.689 3487.622 L 1044.789 3459.53 C 1045.405 3457.637 1047.283 3456.512 1049.173 3456.907 C 1050.247 3457.135 1051.175 3457.828 1051.723 3458.811 C 1052.271 3459.794 1052.386 3460.974 1052.04 3462.051 L 1042.94 3490.15 C 1042.947 3491.725 1042.054 3493.154 1040.665 3493.792 C 1039.276 3494.431 1037.654 3494.156 1036.532 3493.094 C 1035.411 3492.032 1035.002 3490.382 1035.491 3488.891 L 1035.489 3488.89 Z " fill="rgb(140,94,24)"/><path d=" M 1051.385 3460.784 C 1051.385 3461.117 1051.332 3461.448 1051.231 3461.767 L 1042.131 3489.865 C 1041.609 3491.476 1039.925 3492.345 1038.37 3491.804 C 1036.814 3491.263 1035.976 3489.518 1036.498 3487.906 L 1045.598 3459.807 C 1046.078 3458.337 1047.538 3457.465 1049.006 3457.772 C 1050.386 3458.067 1051.379 3459.325 1051.383 3460.785 M 1053.094 3460.785 C 1053.091 3458.479 1051.522 3456.493 1049.341 3456.035 C 1047.028 3455.55 1044.73 3456.928 1043.982 3459.247 L 1034.882 3487.346 C 1034.714 3487.858 1034.634 3488.377 1034.634 3488.888 C 1034.641 3491.262 1036.304 3493.282 1038.565 3493.664 C 1040.826 3494.045 1043.021 3492.676 1043.754 3490.426 L 1052.854 3462.335 C 1053.015 3461.835 1053.096 3461.311 1053.094 3460.784 L 1053.094 3460.785 Z  M 1001.132 3480.075 C 999.298 3480.074 997.603 3479.06 996.687 3477.413 C 995.77 3475.767 995.771 3473.739 996.689 3472.094 C 997.606 3470.448 999.301 3469.435 1001.135 3469.436 C 1003.97 3469.437 1006.268 3471.819 1006.267 3474.757 C 1006.266 3477.695 1003.967 3480.076 1001.132 3480.075 L 1001.132 3480.075 Z " fill="rgb(128,84,19)"/><path d=" M 1000.276 3467.667 C 1000.276 3466.198 1001.425 3465.008 1002.842 3465.008 L 1010.539 3465.008 L 1010.539 3484.506 L 1002.842 3484.506 C 1001.425 3484.506 1000.276 3483.316 1000.276 3481.847 L 1000.276 3467.667 Z " fill="rgb(223,240,254)"/><path d=" M 1009.684 3483.62 L 1002.842 3483.62 C 1001.901 3483.62 1001.132 3482.822 1001.132 3481.847 L 1001.132 3467.667 C 1001.132 3466.692 1001.901 3465.894 1002.842 3465.894 L 1009.684 3465.894 L 1009.684 3483.62 Z  M 1011.395 3485.392 L 1011.395 3464.121 L 1002.842 3464.121 C 1000.953 3464.121 999.421 3465.709 999.421 3467.667 L 999.421 3481.847 C 999.421 3483.805 1000.953 3485.392 1002.842 3485.392 L 1011.395 3485.392 Z " fill="rgb(71,136,199)"/><path d=" M 1024.224 3479.188 L 1024.224 3484.506 L 1015.671 3484.506 L 1015.671 3479.188 L 1024.224 3479.188 Z " fill="rgb(140,94,24)"/><path d=" M 1023.368 3483.62 L 1016.526 3483.62 L 1016.526 3480.075 L 1023.368 3480.075 L 1023.368 3483.62 Z  M 1025.079 3485.392 L 1025.079 3478.302 L 1014.816 3478.302 L 1014.816 3485.392 L 1025.079 3485.392 Z " fill="rgb(128,84,19)"/><path d=" M 1015.671 3465.008 L 1019.787 3465.008 L 1019.154 3460.7 C 1019.119 3460.5 1019.106 3460.3 1019.106 3460.098 C 1019.12 3457.958 1020.764 3456.212 1022.828 3456.145 C 1024.754 3456.091 1026.418 3457.531 1026.711 3459.504 L 1031.032 3488.799 C 1031.066 3489.007 1031.079 3489.207 1031.079 3489.409 C 1031.079 3491.534 1029.408 3493.307 1027.357 3493.362 C 1025.43 3493.415 1023.765 3491.973 1023.474 3489.997 L 1020.568 3470.325 L 1015.671 3470.325 L 1015.671 3465.008 Z " fill="rgb(140,94,24)"/><path d=" M 1030.224 3489.409 C 1030.224 3491.057 1028.928 3492.435 1027.337 3492.476 C 1025.84 3492.516 1024.547 3491.398 1024.318 3489.865 L 1021.524 3470.942 L 1021.304 3469.439 L 1016.526 3469.439 L 1016.526 3465.894 L 1020.782 3465.894 L 1020.483 3463.852 L 1019.994 3460.569 C 1019.975 3460.41 1019.959 3460.25 1019.959 3460.098 C 1019.973 3458.438 1021.246 3457.083 1022.847 3457.024 C 1024.346 3456.983 1025.641 3458.105 1025.868 3459.642 L 1030.19 3488.93 C 1030.211 3489.089 1030.222 3489.249 1030.224 3489.409 Z  M 1031.935 3489.409 C 1031.933 3489.161 1031.915 3488.914 1031.882 3488.668 L 1027.557 3459.371 C 1027.199 3456.955 1025.165 3455.191 1022.807 3455.252 C 1021.464 3455.29 1020.201 3455.924 1019.34 3456.993 C 1018.478 3458.062 1018.101 3459.462 1018.304 3460.839 L 1018.791 3464.121 L 1014.816 3464.121 L 1014.816 3471.212 L 1019.834 3471.212 L 1022.626 3490.136 C 1022.986 3492.553 1025.025 3494.316 1027.385 3494.248 C 1029.913 3494.172 1031.927 3492.03 1031.935 3489.409 Z " fill="rgb(128,84,19)"/><path d=" M 1044.764 3460.098 C 1044.777 3457.958 1046.421 3456.212 1048.486 3456.145 C 1050.412 3456.091 1052.076 3457.531 1052.369 3459.504 L 1054.466 3473.732 C 1056.043 3478.974 1058.561 3480.911 1059.91 3481.597 C 1058.901 3484.284 1056.443 3489.152 1053.303 3489.762 L 1052.601 3489.776 L 1052.427 3489.795 C 1050.562 3489.845 1048.893 3488.404 1048.606 3486.431 L 1044.81 3460.7 C 1044.776 3460.5 1044.764 3460.3 1044.764 3460.098 Z " fill="rgb(140,94,24)"/><path d=" M 1058.828 3482 C 1057.8 3484.464 1055.767 3488.189 1053.371 3488.842 L 1052.56 3488.89 L 1052.381 3488.909 C 1050.919 3488.9 1049.678 3487.796 1049.447 3486.3 L 1045.651 3460.569 C 1045.633 3460.41 1045.617 3460.25 1045.617 3460.098 C 1045.631 3458.434 1046.909 3457.078 1048.513 3457.024 C 1050.01 3456.989 1051.299 3458.109 1051.527 3459.642 L 1053.624 3473.864 L 1053.645 3474.002 L 1053.686 3474.126 C 1055.102 3478.807 1057.273 3480.996 1058.829 3482 M 1061 3481.085 C 1061 3481.085 1057.351 3480.332 1055.314 3473.601 L 1053.215 3459.371 C 1052.857 3456.955 1050.823 3455.191 1048.465 3455.252 C 1047.122 3455.29 1045.859 3455.924 1044.998 3456.993 C 1044.136 3458.062 1043.759 3459.462 1043.961 3460.839 L 1047.764 3486.562 C 1048.12 3488.979 1050.155 3490.745 1052.514 3490.682 C 1052.567 3490.675 1052.615 3490.662 1052.661 3490.662 L 1052.654 3490.71 C 1057.912 3490.71 1061 3481.085 1061 3481.085 Z " fill="rgb(128,84,19)"/><path d=" M 1010.539 3462.349 C 1010.541 3459.902 1012.455 3457.919 1014.816 3457.917 L 1015.671 3457.917 L 1015.671 3491.596 L 1014.816 3491.596 C 1012.457 3491.596 1010.539 3489.609 1010.539 3487.165 L 1010.539 3462.349 Z " fill="rgb(223,240,254)"/><path d=" M 1014.816 3490.71 C 1012.931 3490.71 1011.395 3489.118 1011.395 3487.165 L 1011.395 3462.349 C 1011.395 3460.396 1012.931 3458.804 1014.816 3458.804 L 1014.816 3490.71 Z  M 1016.526 3492.483 L 1016.526 3457.031 L 1014.816 3457.031 C 1011.982 3457.031 1009.684 3459.412 1009.684 3462.349 L 1009.684 3487.165 C 1009.684 3490.102 1011.982 3492.483 1014.816 3492.483 L 1016.526 3492.483 Z  M 1002.842 3484.506 L 1002.842 3473.871 C 1002.841 3473.635 1002.931 3473.409 1003.092 3473.243 C 1003.252 3473.076 1003.47 3472.983 1003.697 3472.984 C 1004.171 3472.984 1004.553 3473.38 1004.553 3473.871 L 1004.553 3484.506 C 1004.553 3484.996 1004.17 3485.392 1003.697 3485.392 C 1003.225 3485.392 1002.842 3484.996 1002.842 3484.506 Z  M 1002.842 3468.553 L 1002.842 3465.008 C 1002.841 3464.772 1002.931 3464.546 1003.092 3464.38 C 1003.252 3464.214 1003.47 3464.121 1003.697 3464.121 C 1004.171 3464.121 1004.553 3464.517 1004.553 3465.008 L 1004.553 3468.553 C 1004.553 3469.042 1004.17 3469.439 1003.697 3469.439 C 1003.225 3469.439 1002.842 3469.042 1002.842 3468.553 Z  M 1006.263 3484.506 L 1006.263 3473.871 C 1006.262 3473.635 1006.352 3473.409 1006.513 3473.243 C 1006.673 3473.076 1006.891 3472.983 1007.118 3472.984 C 1007.592 3472.984 1007.974 3473.38 1007.974 3473.871 L 1007.974 3484.506 C 1007.974 3484.996 1007.591 3485.392 1007.118 3485.392 C 1006.646 3485.392 1006.263 3484.996 1006.263 3484.506 Z  M 1006.263 3468.553 L 1006.263 3465.008 C 1006.262 3464.772 1006.352 3464.546 1006.513 3464.38 C 1006.673 3464.214 1006.891 3464.121 1007.118 3464.121 C 1007.592 3464.121 1007.974 3464.517 1007.974 3465.008 L 1007.974 3468.553 C 1007.974 3469.042 1007.591 3469.439 1007.118 3469.439 C 1006.646 3469.439 1006.263 3469.042 1006.263 3468.553 Z " fill="rgb(71,136,199)"/><path d=" M 1031.079 3460.098 C 1031.093 3457.958 1032.737 3456.212 1034.802 3456.145 C 1036.728 3456.091 1038.391 3457.531 1038.684 3459.504 L 1043.005 3488.799 C 1043.039 3489.007 1043.053 3489.207 1043.053 3489.409 C 1043.053 3491.534 1041.382 3493.307 1039.331 3493.362 C 1037.403 3493.415 1035.739 3491.973 1035.448 3489.997 L 1031.126 3460.7 C 1031.091 3460.5 1031.079 3460.3 1031.079 3460.098 Z " fill="rgb(140,94,24)"/><path d=" M 1042.198 3489.409 C 1042.198 3491.057 1040.901 3492.435 1039.311 3492.476 C 1037.814 3492.516 1036.521 3491.398 1036.291 3489.865 L 1031.967 3460.569 C 1031.948 3460.41 1031.933 3460.25 1031.933 3460.098 C 1031.947 3458.438 1033.219 3457.083 1034.82 3457.024 C 1036.32 3456.983 1037.615 3458.105 1037.841 3459.642 L 1042.164 3488.93 C 1042.185 3489.089 1042.196 3489.249 1042.198 3489.409 Z  M 1043.908 3489.409 C 1043.907 3489.161 1043.889 3488.914 1043.855 3488.668 L 1039.531 3459.371 C 1039.173 3456.955 1037.139 3455.191 1034.781 3455.252 C 1033.438 3455.29 1032.175 3455.924 1031.314 3456.993 C 1030.452 3458.062 1030.075 3459.462 1030.277 3460.839 L 1034.6 3490.136 C 1034.959 3492.553 1036.999 3494.316 1039.358 3494.248 C 1041.887 3494.172 1043.9 3492.03 1043.908 3489.409 Z " fill="rgb(128,84,19)"/></g></g><g><rect x="971.167" y="3464.583" width="30" height="19.667" transform="matrix(0,1,-1,0,4460.583,2488.25)" fill="rgb(116,116,116)"/></g></g></svg>