<?xml version="1.0" standalone="no"?><!-- Generator: Gravit.io --><svg xmlns="http://www.w3.org/2000/svg" xmlns:xlink="http://www.w3.org/1999/xlink" style="isolation:isolate" viewBox="871 3320.25 100 100" width="100" height="100"><g><g><path d="M 880.5 3320.25 L 961.5 3320.25 C 966.743 3320.25 971 3324.507 971 3329.75 L 971 3410.75 C 971 3415.993 966.743 3420.25 961.5 3420.25 L 880.5 3420.25 C 875.257 3420.25 871 3415.993 871 3410.75 L 871 3329.75 C 871 3324.507 875.257 3320.25 880.5 3320.25 Z" style="stroke:none;fill:#2E2E2E;stroke-miterlimit:10;"/><g><path d=" M 918.522 3384.39 C 918.522 3384.035 918.569 3383.682 918.663 3383.344 L 926.16 3354.747 C 926.671 3352.821 928.479 3351.586 930.388 3351.859 C 931.473 3352.023 932.438 3352.659 933.041 3353.607 C 933.643 3354.555 933.826 3355.726 933.542 3356.823 L 926.038 3385.421 C 925.528 3387.347 923.719 3388.582 921.81 3388.309 C 919.931 3388.022 918.535 3386.358 918.522 3384.39 Z " fill="rgb(31,60,85)"/><path d=" M 932.822 3355.779 C 932.822 3356.048 932.788 3356.326 932.715 3356.589 L 925.217 3385.186 C 924.82 3386.682 923.413 3387.642 921.93 3387.428 C 920.471 3387.208 919.387 3385.917 919.378 3384.39 C 919.378 3384.111 919.412 3383.842 919.484 3383.572 L 926.989 3354.976 C 927.383 3353.479 928.788 3352.518 930.27 3352.731 C 931.731 3352.953 932.817 3354.248 932.822 3355.779 Z  M 934.533 3355.779 C 934.527 3353.352 932.791 3351.304 930.47 3350.984 C 928.149 3350.664 925.957 3352.171 925.339 3354.511 L 917.835 3383.108 C 917.157 3385.693 918.63 3388.358 921.125 3389.059 C 923.619 3389.761 926.191 3388.235 926.868 3385.65 L 934.367 3357.051 C 934.478 3356.636 934.534 3356.207 934.533 3355.777 L 934.533 3355.779 Z " fill="rgb(11,36,62)"/><path d=" M 930.489 3384.39 C 930.489 3383.959 930.557 3383.531 930.689 3383.122 L 939.789 3355.03 C 940.405 3353.137 942.283 3352.012 944.173 3352.407 C 945.247 3352.635 946.175 3353.328 946.723 3354.311 C 947.271 3355.294 947.386 3356.474 947.04 3357.551 L 937.94 3385.65 C 937.947 3387.225 937.054 3388.654 935.665 3389.292 C 934.276 3389.931 932.654 3389.656 931.532 3388.594 C 930.411 3387.532 930.002 3385.882 930.491 3384.391 L 930.489 3384.39 Z " fill="rgb(31,60,85)"/><path d=" M 946.385 3356.284 C 946.385 3356.617 946.332 3356.948 946.231 3357.267 L 937.131 3385.365 C 936.609 3386.976 934.925 3387.845 933.37 3387.304 C 931.814 3386.763 930.976 3385.018 931.498 3383.406 L 940.598 3355.307 C 941.078 3353.837 942.538 3352.965 944.006 3353.272 C 945.386 3353.567 946.379 3354.825 946.383 3356.285 M 948.094 3356.285 C 948.091 3353.979 946.522 3351.993 944.341 3351.535 C 942.028 3351.05 939.73 3352.428 938.982 3354.747 L 929.882 3382.846 C 929.714 3383.358 929.634 3383.877 929.634 3384.388 C 929.641 3386.762 931.304 3388.782 933.565 3389.164 C 935.826 3389.545 938.021 3388.176 938.754 3385.926 L 947.854 3357.835 C 948.015 3357.335 948.096 3356.811 948.094 3356.284 L 948.094 3356.285 Z  M 896.132 3375.575 C 894.298 3375.574 892.603 3374.56 891.687 3372.913 C 890.77 3371.267 890.771 3369.239 891.689 3367.594 C 892.606 3365.948 894.301 3364.935 896.135 3364.936 C 898.97 3364.937 901.268 3367.319 901.267 3370.257 C 901.266 3373.195 898.967 3375.576 896.132 3375.575 L 896.132 3375.575 Z " fill="rgb(11,36,62)"/><path d=" M 895.276 3363.167 C 895.276 3361.698 896.425 3360.508 897.842 3360.508 L 905.539 3360.508 L 905.539 3380.006 L 897.842 3380.006 C 896.425 3380.006 895.276 3378.816 895.276 3377.347 L 895.276 3363.167 Z " fill="rgb(223,240,254)"/><path d=" M 904.684 3379.12 L 897.842 3379.12 C 896.901 3379.12 896.132 3378.322 896.132 3377.347 L 896.132 3363.167 C 896.132 3362.192 896.901 3361.394 897.842 3361.394 L 904.684 3361.394 L 904.684 3379.12 Z  M 906.395 3380.892 L 906.395 3359.621 L 897.842 3359.621 C 895.953 3359.621 894.421 3361.209 894.421 3363.167 L 894.421 3377.347 C 894.421 3379.305 895.953 3380.892 897.842 3380.892 L 906.395 3380.892 Z " fill="rgb(71,136,199)"/><path d=" M 919.224 3374.688 L 919.224 3380.006 L 910.671 3380.006 L 910.671 3374.688 L 919.224 3374.688 Z " fill="rgb(31,60,85)"/><path d=" M 918.368 3379.12 L 911.526 3379.12 L 911.526 3375.575 L 918.368 3375.575 L 918.368 3379.12 Z  M 920.079 3380.892 L 920.079 3373.802 L 909.816 3373.802 L 909.816 3380.892 L 920.079 3380.892 Z " fill="rgb(11,36,62)"/><path d=" M 910.671 3360.508 L 914.787 3360.508 L 914.154 3356.2 C 914.119 3356 914.106 3355.8 914.106 3355.598 C 914.12 3353.458 915.764 3351.712 917.828 3351.645 C 919.754 3351.591 921.418 3353.031 921.711 3355.004 L 926.032 3384.299 C 926.066 3384.507 926.079 3384.707 926.079 3384.909 C 926.079 3387.034 924.408 3388.807 922.357 3388.862 C 920.43 3388.915 918.765 3387.473 918.474 3385.497 L 915.568 3365.825 L 910.671 3365.825 L 910.671 3360.508 Z " fill="rgb(31,60,85)"/><path d=" M 925.224 3384.909 C 925.224 3386.557 923.928 3387.935 922.337 3387.976 C 920.84 3388.016 919.547 3386.898 919.318 3385.365 L 916.524 3366.442 L 916.304 3364.939 L 911.526 3364.939 L 911.526 3361.394 L 915.782 3361.394 L 915.483 3359.352 L 914.994 3356.069 C 914.975 3355.91 914.959 3355.75 914.959 3355.598 C 914.973 3353.938 916.246 3352.583 917.847 3352.524 C 919.346 3352.483 920.641 3353.605 920.868 3355.142 L 925.19 3384.43 C 925.211 3384.589 925.222 3384.749 925.224 3384.909 Z  M 926.935 3384.909 C 926.933 3384.661 926.915 3384.414 926.882 3384.168 L 922.557 3354.871 C 922.199 3352.455 920.165 3350.691 917.807 3350.752 C 916.464 3350.79 915.201 3351.424 914.34 3352.493 C 913.478 3353.562 913.101 3354.962 913.304 3356.339 L 913.791 3359.621 L 909.816 3359.621 L 909.816 3366.712 L 914.834 3366.712 L 917.626 3385.636 C 917.986 3388.053 920.025 3389.816 922.385 3389.748 C 924.913 3389.672 926.927 3387.53 926.935 3384.909 Z " fill="rgb(11,36,62)"/><path d=" M 939.764 3355.598 C 939.777 3353.458 941.421 3351.712 943.486 3351.645 C 945.412 3351.591 947.076 3353.031 947.369 3355.004 L 949.466 3369.232 C 951.043 3374.474 953.561 3376.411 954.91 3377.097 C 953.901 3379.784 951.443 3384.652 948.303 3385.262 L 947.601 3385.276 L 947.427 3385.295 C 945.562 3385.345 943.893 3383.904 943.606 3381.931 L 939.81 3356.2 C 939.776 3356 939.764 3355.8 939.764 3355.598 Z " fill="rgb(31,60,85)"/><path d=" M 953.828 3377.5 C 952.8 3379.964 950.767 3383.689 948.371 3384.342 L 947.56 3384.39 L 947.381 3384.409 C 945.919 3384.4 944.678 3383.296 944.447 3381.8 L 940.651 3356.069 C 940.633 3355.91 940.617 3355.75 940.617 3355.598 C 940.631 3353.934 941.909 3352.578 943.513 3352.524 C 945.01 3352.489 946.299 3353.609 946.527 3355.142 L 948.624 3369.364 L 948.645 3369.502 L 948.686 3369.626 C 950.102 3374.307 952.273 3376.496 953.829 3377.5 M 956 3376.585 C 956 3376.585 952.351 3375.832 950.314 3369.101 L 948.215 3354.871 C 947.857 3352.455 945.823 3350.691 943.465 3350.752 C 942.122 3350.79 940.859 3351.424 939.998 3352.493 C 939.136 3353.562 938.759 3354.962 938.961 3356.339 L 942.764 3382.062 C 943.12 3384.479 945.155 3386.245 947.514 3386.182 C 947.567 3386.175 947.615 3386.162 947.661 3386.162 L 947.654 3386.21 C 952.912 3386.21 956 3376.585 956 3376.585 Z " fill="rgb(11,36,62)"/><path d=" M 905.539 3357.849 C 905.541 3355.402 907.455 3353.419 909.816 3353.417 L 910.671 3353.417 L 910.671 3387.096 L 909.816 3387.096 C 907.457 3387.096 905.539 3385.109 905.539 3382.665 L 905.539 3357.849 Z " fill="rgb(223,240,254)"/><path d=" M 909.816 3386.21 C 907.931 3386.21 906.395 3384.618 906.395 3382.665 L 906.395 3357.849 C 906.395 3355.896 907.931 3354.304 909.816 3354.304 L 909.816 3386.21 Z  M 911.526 3387.983 L 911.526 3352.531 L 909.816 3352.531 C 906.982 3352.531 904.684 3354.912 904.684 3357.849 L 904.684 3382.665 C 904.684 3385.602 906.982 3387.983 909.816 3387.983 L 911.526 3387.983 Z  M 897.842 3380.006 L 897.842 3369.371 C 897.841 3369.135 897.931 3368.909 898.092 3368.743 C 898.252 3368.576 898.47 3368.483 898.697 3368.484 C 899.171 3368.484 899.553 3368.88 899.553 3369.371 L 899.553 3380.006 C 899.553 3380.496 899.17 3380.892 898.697 3380.892 C 898.225 3380.892 897.842 3380.496 897.842 3380.006 Z  M 897.842 3364.053 L 897.842 3360.508 C 897.841 3360.272 897.931 3360.046 898.092 3359.88 C 898.252 3359.714 898.47 3359.621 898.697 3359.621 C 899.171 3359.621 899.553 3360.017 899.553 3360.508 L 899.553 3364.053 C 899.553 3364.542 899.17 3364.939 898.697 3364.939 C 898.225 3364.939 897.842 3364.542 897.842 3364.053 Z  M 901.263 3380.006 L 901.263 3369.371 C 901.262 3369.135 901.352 3368.909 901.513 3368.743 C 901.673 3368.576 901.891 3368.483 902.118 3368.484 C 902.592 3368.484 902.974 3368.88 902.974 3369.371 L 902.974 3380.006 C 902.974 3380.496 902.591 3380.892 902.118 3380.892 C 901.646 3380.892 901.263 3380.496 901.263 3380.006 Z  M 901.263 3364.053 L 901.263 3360.508 C 901.262 3360.272 901.352 3360.046 901.513 3359.88 C 901.673 3359.714 901.891 3359.621 902.118 3359.621 C 902.592 3359.621 902.974 3360.017 902.974 3360.508 L 902.974 3364.053 C 902.974 3364.542 902.591 3364.939 902.118 3364.939 C 901.646 3364.939 901.263 3364.542 901.263 3364.053 Z " fill="rgb(71,136,199)"/><path d=" M 926.079 3355.598 C 926.093 3353.458 927.737 3351.712 929.802 3351.645 C 931.728 3351.591 933.391 3353.031 933.684 3355.004 L 938.005 3384.299 C 938.039 3384.507 938.053 3384.707 938.053 3384.909 C 938.053 3387.034 936.382 3388.807 934.331 3388.862 C 932.403 3388.915 930.739 3387.473 930.448 3385.497 L 926.126 3356.2 C 926.091 3356 926.079 3355.8 926.079 3355.598 Z " fill="rgb(31,60,85)"/><path d=" M 937.198 3384.909 C 937.198 3386.557 935.901 3387.935 934.311 3387.976 C 932.814 3388.016 931.521 3386.898 931.291 3385.365 L 926.967 3356.069 C 926.948 3355.91 926.933 3355.75 926.933 3355.598 C 926.947 3353.938 928.219 3352.583 929.82 3352.524 C 931.32 3352.483 932.615 3353.605 932.841 3355.142 L 937.164 3384.43 C 937.185 3384.589 937.196 3384.749 937.198 3384.909 Z  M 938.908 3384.909 C 938.907 3384.661 938.889 3384.414 938.855 3384.168 L 934.531 3354.871 C 934.173 3352.455 932.139 3350.691 929.781 3350.752 C 928.438 3350.79 927.175 3351.424 926.314 3352.493 C 925.452 3353.562 925.075 3354.962 925.277 3356.339 L 929.6 3385.636 C 929.959 3388.053 931.999 3389.816 934.358 3389.748 C 936.887 3389.672 938.9 3387.53 938.908 3384.909 Z " fill="rgb(11,36,62)"/></g></g><g><rect x="866.167" y="3360.083" width="30" height="19.667" transform="matrix(0,1,-1,0,4251.083,2488.75)" fill="rgb(116,116,116)"/></g></g></svg>