<?xml version="1.0" standalone="no"?><!-- Generator: Gravit.io --><svg xmlns="http://www.w3.org/2000/svg" xmlns:xlink="http://www.w3.org/1999/xlink" style="isolation:isolate" viewBox="870.5 3530 100 100" width="100" height="100"><g><g><path d="M 880 3530 L 961 3530 C 966.243 3530 970.5 3534.257 970.5 3539.5 L 970.5 3620.5 C 970.5 3625.743 966.243 3630 961 3630 L 880 3630 C 874.757 3630 870.5 3625.743 870.5 3620.5 L 870.5 3539.5 C 870.5 3534.257 874.757 3530 880 3530 Z" style="stroke:none;fill:#2E2E2E;stroke-miterlimit:10;"/><g><path d=" M 918.022 3594.14 C 918.022 3593.785 918.069 3593.432 918.163 3593.094 L 925.66 3564.497 C 926.171 3562.571 927.979 3561.336 929.888 3561.609 C 930.973 3561.773 931.938 3562.409 932.541 3563.357 C 933.143 3564.305 933.326 3565.476 933.042 3566.573 L 925.538 3595.171 C 925.028 3597.097 923.219 3598.332 921.31 3598.059 C 919.431 3597.772 918.035 3596.108 918.022 3594.14 Z " fill="rgb(148,121,255)"/><path d=" M 932.322 3565.529 C 932.322 3565.798 932.288 3566.076 932.215 3566.339 L 924.717 3594.936 C 924.32 3596.432 922.913 3597.392 921.43 3597.178 C 919.971 3596.958 918.887 3595.667 918.878 3594.14 C 918.878 3593.861 918.912 3593.592 918.984 3593.322 L 926.489 3564.726 C 926.883 3563.229 928.288 3562.268 929.77 3562.481 C 931.231 3562.703 932.317 3563.998 932.322 3565.529 Z  M 934.033 3565.529 C 934.027 3563.102 932.291 3561.054 929.97 3560.734 C 927.649 3560.414 925.457 3561.921 924.839 3564.261 L 917.335 3592.858 C 916.657 3595.443 918.13 3598.108 920.625 3598.809 C 923.119 3599.511 925.691 3597.985 926.368 3595.4 L 933.867 3566.801 C 933.978 3566.386 934.034 3565.957 934.033 3565.527 L 934.033 3565.529 Z " fill="rgb(114,81,249)"/><path d=" M 929.989 3594.14 C 929.989 3593.709 930.057 3593.281 930.189 3592.872 L 939.289 3564.78 C 939.905 3562.887 941.783 3561.762 943.673 3562.157 C 944.747 3562.385 945.675 3563.078 946.223 3564.061 C 946.771 3565.044 946.886 3566.224 946.54 3567.301 L 937.44 3595.4 C 937.447 3596.975 936.554 3598.404 935.165 3599.042 C 933.776 3599.681 932.154 3599.406 931.032 3598.344 C 929.911 3597.282 929.502 3595.632 929.991 3594.141 L 929.989 3594.14 Z " fill="rgb(148,121,255)"/><path d=" M 945.885 3566.034 C 945.885 3566.367 945.832 3566.698 945.731 3567.017 L 936.631 3595.115 C 936.109 3596.726 934.425 3597.595 932.87 3597.054 C 931.314 3596.513 930.476 3594.768 930.998 3593.156 L 940.098 3565.057 C 940.578 3563.587 942.038 3562.715 943.506 3563.022 C 944.886 3563.317 945.879 3564.575 945.883 3566.035 M 947.594 3566.035 C 947.591 3563.729 946.022 3561.743 943.841 3561.285 C 941.528 3560.8 939.23 3562.178 938.482 3564.497 L 929.382 3592.596 C 929.214 3593.108 929.134 3593.627 929.134 3594.138 C 929.141 3596.512 930.804 3598.532 933.065 3598.914 C 935.326 3599.295 937.521 3597.926 938.254 3595.676 L 947.354 3567.585 C 947.515 3567.085 947.596 3566.561 947.594 3566.034 L 947.594 3566.035 Z  M 895.632 3585.325 C 893.798 3585.324 892.103 3584.31 891.187 3582.663 C 890.27 3581.017 890.271 3578.989 891.189 3577.344 C 892.106 3575.698 893.801 3574.685 895.635 3574.686 C 898.47 3574.687 900.768 3577.069 900.767 3580.007 C 900.766 3582.945 898.467 3585.326 895.632 3585.325 L 895.632 3585.325 Z " fill="rgb(114,81,249)"/><path d=" M 894.776 3572.917 C 894.776 3571.448 895.925 3570.258 897.342 3570.258 L 905.039 3570.258 L 905.039 3589.756 L 897.342 3589.756 C 895.925 3589.756 894.776 3588.566 894.776 3587.097 L 894.776 3572.917 Z " fill="rgb(223,240,254)"/><path d=" M 904.184 3588.87 L 897.342 3588.87 C 896.401 3588.87 895.632 3588.072 895.632 3587.097 L 895.632 3572.917 C 895.632 3571.942 896.401 3571.144 897.342 3571.144 L 904.184 3571.144 L 904.184 3588.87 Z  M 905.895 3590.642 L 905.895 3569.371 L 897.342 3569.371 C 895.453 3569.371 893.921 3570.959 893.921 3572.917 L 893.921 3587.097 C 893.921 3589.055 895.453 3590.642 897.342 3590.642 L 905.895 3590.642 Z " fill="rgb(71,136,199)"/><path d=" M 918.724 3584.438 L 918.724 3589.756 L 910.171 3589.756 L 910.171 3584.438 L 918.724 3584.438 Z " fill="rgb(148,121,255)"/><path d=" M 917.868 3588.87 L 911.026 3588.87 L 911.026 3585.325 L 917.868 3585.325 L 917.868 3588.87 Z  M 919.579 3590.642 L 919.579 3583.552 L 909.316 3583.552 L 909.316 3590.642 L 919.579 3590.642 Z " fill="rgb(114,81,249)"/><path d=" M 910.171 3570.258 L 914.287 3570.258 L 913.654 3565.95 C 913.619 3565.75 913.606 3565.55 913.606 3565.348 C 913.62 3563.208 915.264 3561.462 917.328 3561.395 C 919.254 3561.341 920.918 3562.781 921.211 3564.754 L 925.532 3594.049 C 925.566 3594.257 925.579 3594.457 925.579 3594.659 C 925.579 3596.784 923.908 3598.557 921.857 3598.612 C 919.93 3598.665 918.265 3597.223 917.974 3595.247 L 915.068 3575.575 L 910.171 3575.575 L 910.171 3570.258 Z " fill="rgb(148,121,255)"/><path d=" M 924.724 3594.659 C 924.724 3596.307 923.428 3597.685 921.837 3597.726 C 920.34 3597.766 919.047 3596.648 918.818 3595.115 L 916.024 3576.192 L 915.804 3574.689 L 911.026 3574.689 L 911.026 3571.144 L 915.282 3571.144 L 914.983 3569.102 L 914.494 3565.819 C 914.475 3565.66 914.459 3565.5 914.459 3565.348 C 914.473 3563.688 915.746 3562.333 917.347 3562.274 C 918.846 3562.233 920.141 3563.355 920.368 3564.892 L 924.69 3594.18 C 924.711 3594.339 924.722 3594.499 924.724 3594.659 Z  M 926.435 3594.659 C 926.433 3594.411 926.415 3594.164 926.382 3593.918 L 922.057 3564.621 C 921.699 3562.205 919.665 3560.441 917.307 3560.502 C 915.964 3560.54 914.701 3561.174 913.84 3562.243 C 912.978 3563.312 912.601 3564.712 912.804 3566.089 L 913.291 3569.371 L 909.316 3569.371 L 909.316 3576.462 L 914.334 3576.462 L 917.126 3595.386 C 917.486 3597.803 919.525 3599.566 921.885 3599.498 C 924.413 3599.422 926.427 3597.28 926.435 3594.659 Z " fill="rgb(114,81,249)"/><path d=" M 939.264 3565.348 C 939.277 3563.208 940.921 3561.462 942.986 3561.395 C 944.912 3561.341 946.576 3562.781 946.869 3564.754 L 948.966 3578.982 C 950.543 3584.224 953.061 3586.161 954.41 3586.847 C 953.401 3589.534 950.943 3594.402 947.803 3595.012 L 947.101 3595.026 L 946.927 3595.045 C 945.062 3595.095 943.393 3593.654 943.106 3591.681 L 939.31 3565.95 C 939.276 3565.75 939.264 3565.55 939.264 3565.348 Z " fill="rgb(148,121,255)"/><path d=" M 953.328 3587.25 C 952.3 3589.714 950.267 3593.439 947.871 3594.092 L 947.06 3594.14 L 946.881 3594.159 C 945.419 3594.15 944.178 3593.046 943.947 3591.55 L 940.151 3565.819 C 940.133 3565.66 940.117 3565.5 940.117 3565.348 C 940.131 3563.684 941.409 3562.328 943.013 3562.274 C 944.51 3562.239 945.799 3563.359 946.027 3564.892 L 948.124 3579.114 L 948.145 3579.252 L 948.186 3579.376 C 949.602 3584.057 951.773 3586.246 953.329 3587.25 M 955.5 3586.335 C 955.5 3586.335 951.851 3585.582 949.814 3578.851 L 947.715 3564.621 C 947.357 3562.205 945.323 3560.441 942.965 3560.502 C 941.622 3560.54 940.359 3561.174 939.498 3562.243 C 938.636 3563.312 938.259 3564.712 938.461 3566.089 L 942.264 3591.812 C 942.62 3594.229 944.655 3595.995 947.014 3595.932 C 947.067 3595.925 947.115 3595.912 947.161 3595.912 L 947.154 3595.96 C 952.412 3595.96 955.5 3586.335 955.5 3586.335 Z " fill="rgb(114,81,249)"/><path d=" M 905.039 3567.599 C 905.041 3565.152 906.955 3563.169 909.316 3563.167 L 910.171 3563.167 L 910.171 3596.846 L 909.316 3596.846 C 906.957 3596.846 905.039 3594.859 905.039 3592.415 L 905.039 3567.599 Z " fill="rgb(223,240,254)"/><path d=" M 909.316 3595.96 C 907.431 3595.96 905.895 3594.368 905.895 3592.415 L 905.895 3567.599 C 905.895 3565.646 907.431 3564.054 909.316 3564.054 L 909.316 3595.96 Z  M 911.026 3597.733 L 911.026 3562.281 L 909.316 3562.281 C 906.482 3562.281 904.184 3564.662 904.184 3567.599 L 904.184 3592.415 C 904.184 3595.352 906.482 3597.733 909.316 3597.733 L 911.026 3597.733 Z  M 897.342 3589.756 L 897.342 3579.121 C 897.341 3578.885 897.431 3578.659 897.592 3578.493 C 897.752 3578.326 897.97 3578.233 898.197 3578.234 C 898.671 3578.234 899.053 3578.63 899.053 3579.121 L 899.053 3589.756 C 899.053 3590.246 898.67 3590.642 898.197 3590.642 C 897.725 3590.642 897.342 3590.246 897.342 3589.756 Z  M 897.342 3573.803 L 897.342 3570.258 C 897.341 3570.022 897.431 3569.796 897.592 3569.63 C 897.752 3569.464 897.97 3569.371 898.197 3569.371 C 898.671 3569.371 899.053 3569.767 899.053 3570.258 L 899.053 3573.803 C 899.053 3574.292 898.67 3574.689 898.197 3574.689 C 897.725 3574.689 897.342 3574.292 897.342 3573.803 Z  M 900.763 3589.756 L 900.763 3579.121 C 900.762 3578.885 900.852 3578.659 901.013 3578.493 C 901.173 3578.326 901.391 3578.233 901.618 3578.234 C 902.092 3578.234 902.474 3578.63 902.474 3579.121 L 902.474 3589.756 C 902.474 3590.246 902.091 3590.642 901.618 3590.642 C 901.146 3590.642 900.763 3590.246 900.763 3589.756 Z  M 900.763 3573.803 L 900.763 3570.258 C 900.762 3570.022 900.852 3569.796 901.013 3569.63 C 901.173 3569.464 901.391 3569.371 901.618 3569.371 C 902.092 3569.371 902.474 3569.767 902.474 3570.258 L 902.474 3573.803 C 902.474 3574.292 902.091 3574.689 901.618 3574.689 C 901.146 3574.689 900.763 3574.292 900.763 3573.803 Z " fill="rgb(71,136,199)"/><path d=" M 925.579 3565.348 C 925.593 3563.208 927.237 3561.462 929.302 3561.395 C 931.228 3561.341 932.891 3562.781 933.184 3564.754 L 937.505 3594.049 C 937.539 3594.257 937.553 3594.457 937.553 3594.659 C 937.553 3596.784 935.882 3598.557 933.831 3598.612 C 931.903 3598.665 930.239 3597.223 929.948 3595.247 L 925.626 3565.95 C 925.591 3565.75 925.579 3565.55 925.579 3565.348 Z " fill="rgb(148,121,255)"/><path d=" M 936.698 3594.659 C 936.698 3596.307 935.401 3597.685 933.811 3597.726 C 932.314 3597.766 931.021 3596.648 930.791 3595.115 L 926.467 3565.819 C 926.448 3565.66 926.433 3565.5 926.433 3565.348 C 926.447 3563.688 927.719 3562.333 929.32 3562.274 C 930.82 3562.233 932.115 3563.355 932.341 3564.892 L 936.664 3594.18 C 936.685 3594.339 936.696 3594.499 936.698 3594.659 Z  M 938.408 3594.659 C 938.407 3594.411 938.389 3594.164 938.355 3593.918 L 934.031 3564.621 C 933.673 3562.205 931.639 3560.441 929.281 3560.502 C 927.938 3560.54 926.675 3561.174 925.814 3562.243 C 924.952 3563.312 924.575 3564.712 924.777 3566.089 L 929.1 3595.386 C 929.459 3597.803 931.499 3599.566 933.858 3599.498 C 936.387 3599.422 938.4 3597.28 938.408 3594.659 Z " fill="rgb(114,81,249)"/></g></g><g><rect x="865.667" y="3569.833" width="30" height="19.667" transform="matrix(0,1,-1,0,4460.333,2699)" fill="rgb(116,116,116)"/><rect x="870.667" y="3569.833" width="20" height="19.667" transform="matrix(0,1,-1,0,4460.333,2699)" fill="rgb(84,183,183)"/></g></g></svg>