<?xml version="1.0" standalone="no"?><!-- Generator: Gravit.io --><svg xmlns="http://www.w3.org/2000/svg" xmlns:xlink="http://www.w3.org/1999/xlink" style="isolation:isolate" viewBox="871 3424.75 100 100" width="100" height="100"><g><g><path d="M 880.5 3424.75 L 961.5 3424.75 C 966.743 3424.75 971 3429.007 971 3434.25 L 971 3515.25 C 971 3520.493 966.743 3524.75 961.5 3524.75 L 880.5 3524.75 C 875.257 3524.75 871 3520.493 871 3515.25 L 871 3434.25 C 871 3429.007 875.257 3424.75 880.5 3424.75 Z" style="stroke:none;fill:#2E2E2E;stroke-miterlimit:10;"/><g><path d=" M 918.522 3488.89 C 918.522 3488.535 918.569 3488.182 918.663 3487.844 L 926.16 3459.247 C 926.671 3457.321 928.479 3456.086 930.388 3456.359 C 931.473 3456.523 932.438 3457.159 933.041 3458.107 C 933.643 3459.055 933.826 3460.226 933.542 3461.323 L 926.038 3489.921 C 925.528 3491.847 923.719 3493.082 921.81 3492.809 C 919.931 3492.522 918.535 3490.858 918.522 3488.89 Z " fill="rgb(234,162,53)"/><path d=" M 932.822 3460.279 C 932.822 3460.548 932.788 3460.826 932.715 3461.089 L 925.217 3489.686 C 924.82 3491.182 923.413 3492.142 921.93 3491.928 C 920.471 3491.708 919.387 3490.417 919.378 3488.89 C 919.378 3488.611 919.412 3488.342 919.484 3488.072 L 926.989 3459.476 C 927.383 3457.979 928.788 3457.018 930.27 3457.231 C 931.731 3457.453 932.817 3458.748 932.822 3460.279 Z  M 934.533 3460.279 C 934.527 3457.852 932.791 3455.804 930.47 3455.484 C 928.149 3455.164 925.957 3456.671 925.339 3459.011 L 917.835 3487.608 C 917.157 3490.193 918.63 3492.858 921.125 3493.559 C 923.619 3494.261 926.191 3492.735 926.868 3490.15 L 934.367 3461.551 C 934.478 3461.136 934.534 3460.707 934.533 3460.277 L 934.533 3460.279 Z " fill="rgb(227,138,3)"/><path d=" M 930.489 3488.89 C 930.489 3488.459 930.557 3488.031 930.689 3487.622 L 939.789 3459.53 C 940.405 3457.637 942.283 3456.512 944.173 3456.907 C 945.247 3457.135 946.175 3457.828 946.723 3458.811 C 947.271 3459.794 947.386 3460.974 947.04 3462.051 L 937.94 3490.15 C 937.947 3491.725 937.054 3493.154 935.665 3493.792 C 934.276 3494.431 932.654 3494.156 931.532 3493.094 C 930.411 3492.032 930.002 3490.382 930.491 3488.891 L 930.489 3488.89 Z " fill="rgb(234,162,53)"/><path d=" M 946.385 3460.784 C 946.385 3461.117 946.332 3461.448 946.231 3461.767 L 937.131 3489.865 C 936.609 3491.476 934.925 3492.345 933.37 3491.804 C 931.814 3491.263 930.976 3489.518 931.498 3487.906 L 940.598 3459.807 C 941.078 3458.337 942.538 3457.465 944.006 3457.772 C 945.386 3458.067 946.379 3459.325 946.383 3460.785 M 948.094 3460.785 C 948.091 3458.479 946.522 3456.493 944.341 3456.035 C 942.028 3455.55 939.73 3456.928 938.982 3459.247 L 929.882 3487.346 C 929.714 3487.858 929.634 3488.377 929.634 3488.888 C 929.641 3491.262 931.304 3493.282 933.565 3493.664 C 935.826 3494.045 938.021 3492.676 938.754 3490.426 L 947.854 3462.335 C 948.015 3461.835 948.096 3461.311 948.094 3460.784 L 948.094 3460.785 Z  M 896.132 3480.075 C 894.298 3480.074 892.603 3479.06 891.687 3477.413 C 890.77 3475.767 890.771 3473.739 891.689 3472.094 C 892.606 3470.448 894.301 3469.435 896.135 3469.436 C 898.97 3469.437 901.268 3471.819 901.267 3474.757 C 901.266 3477.695 898.967 3480.076 896.132 3480.075 L 896.132 3480.075 Z " fill="rgb(227,138,3)"/><path d=" M 895.276 3467.667 C 895.276 3466.198 896.425 3465.008 897.842 3465.008 L 905.539 3465.008 L 905.539 3484.506 L 897.842 3484.506 C 896.425 3484.506 895.276 3483.316 895.276 3481.847 L 895.276 3467.667 Z " fill="rgb(223,240,254)"/><path d=" M 904.684 3483.62 L 897.842 3483.62 C 896.901 3483.62 896.132 3482.822 896.132 3481.847 L 896.132 3467.667 C 896.132 3466.692 896.901 3465.894 897.842 3465.894 L 904.684 3465.894 L 904.684 3483.62 Z  M 906.395 3485.392 L 906.395 3464.121 L 897.842 3464.121 C 895.953 3464.121 894.421 3465.709 894.421 3467.667 L 894.421 3481.847 C 894.421 3483.805 895.953 3485.392 897.842 3485.392 L 906.395 3485.392 Z " fill="rgb(71,136,199)"/><path d=" M 919.224 3479.188 L 919.224 3484.506 L 910.671 3484.506 L 910.671 3479.188 L 919.224 3479.188 Z " fill="rgb(234,162,53)"/><path d=" M 918.368 3483.62 L 911.526 3483.62 L 911.526 3480.075 L 918.368 3480.075 L 918.368 3483.62 Z  M 920.079 3485.392 L 920.079 3478.302 L 909.816 3478.302 L 909.816 3485.392 L 920.079 3485.392 Z " fill="rgb(227,138,3)"/><path d=" M 910.671 3465.008 L 914.787 3465.008 L 914.154 3460.7 C 914.119 3460.5 914.106 3460.3 914.106 3460.098 C 914.12 3457.958 915.764 3456.212 917.828 3456.145 C 919.754 3456.091 921.418 3457.531 921.711 3459.504 L 926.032 3488.799 C 926.066 3489.007 926.079 3489.207 926.079 3489.409 C 926.079 3491.534 924.408 3493.307 922.357 3493.362 C 920.43 3493.415 918.765 3491.973 918.474 3489.997 L 915.568 3470.325 L 910.671 3470.325 L 910.671 3465.008 Z " fill="rgb(234,162,53)"/><path d=" M 925.224 3489.409 C 925.224 3491.057 923.928 3492.435 922.337 3492.476 C 920.84 3492.516 919.547 3491.398 919.318 3489.865 L 916.524 3470.942 L 916.304 3469.439 L 911.526 3469.439 L 911.526 3465.894 L 915.782 3465.894 L 915.483 3463.852 L 914.994 3460.569 C 914.975 3460.41 914.959 3460.25 914.959 3460.098 C 914.973 3458.438 916.246 3457.083 917.847 3457.024 C 919.346 3456.983 920.641 3458.105 920.868 3459.642 L 925.19 3488.93 C 925.211 3489.089 925.222 3489.249 925.224 3489.409 Z  M 926.935 3489.409 C 926.933 3489.161 926.915 3488.914 926.882 3488.668 L 922.557 3459.371 C 922.199 3456.955 920.165 3455.191 917.807 3455.252 C 916.464 3455.29 915.201 3455.924 914.34 3456.993 C 913.478 3458.062 913.101 3459.462 913.304 3460.839 L 913.791 3464.121 L 909.816 3464.121 L 909.816 3471.212 L 914.834 3471.212 L 917.626 3490.136 C 917.986 3492.553 920.025 3494.316 922.385 3494.248 C 924.913 3494.172 926.927 3492.03 926.935 3489.409 Z " fill="rgb(227,138,3)"/><path d=" M 939.764 3460.098 C 939.777 3457.958 941.421 3456.212 943.486 3456.145 C 945.412 3456.091 947.076 3457.531 947.369 3459.504 L 949.466 3473.732 C 951.043 3478.974 953.561 3480.911 954.91 3481.597 C 953.901 3484.284 951.443 3489.152 948.303 3489.762 L 947.601 3489.776 L 947.427 3489.795 C 945.562 3489.845 943.893 3488.404 943.606 3486.431 L 939.81 3460.7 C 939.776 3460.5 939.764 3460.3 939.764 3460.098 Z " fill="rgb(234,162,53)"/><path d=" M 953.828 3482 C 952.8 3484.464 950.767 3488.189 948.371 3488.842 L 947.56 3488.89 L 947.381 3488.909 C 945.919 3488.9 944.678 3487.796 944.447 3486.3 L 940.651 3460.569 C 940.633 3460.41 940.617 3460.25 940.617 3460.098 C 940.631 3458.434 941.909 3457.078 943.513 3457.024 C 945.01 3456.989 946.299 3458.109 946.527 3459.642 L 948.624 3473.864 L 948.645 3474.002 L 948.686 3474.126 C 950.102 3478.807 952.273 3480.996 953.829 3482 M 956 3481.085 C 956 3481.085 952.351 3480.332 950.314 3473.601 L 948.215 3459.371 C 947.857 3456.955 945.823 3455.191 943.465 3455.252 C 942.122 3455.29 940.859 3455.924 939.998 3456.993 C 939.136 3458.062 938.759 3459.462 938.961 3460.839 L 942.764 3486.562 C 943.12 3488.979 945.155 3490.745 947.514 3490.682 C 947.567 3490.675 947.615 3490.662 947.661 3490.662 L 947.654 3490.71 C 952.912 3490.71 956 3481.085 956 3481.085 Z " fill="rgb(227,138,3)"/><path d=" M 905.539 3462.349 C 905.541 3459.902 907.455 3457.919 909.816 3457.917 L 910.671 3457.917 L 910.671 3491.596 L 909.816 3491.596 C 907.457 3491.596 905.539 3489.609 905.539 3487.165 L 905.539 3462.349 Z " fill="rgb(223,240,254)"/><path d=" M 909.816 3490.71 C 907.931 3490.71 906.395 3489.118 906.395 3487.165 L 906.395 3462.349 C 906.395 3460.396 907.931 3458.804 909.816 3458.804 L 909.816 3490.71 Z  M 911.526 3492.483 L 911.526 3457.031 L 909.816 3457.031 C 906.982 3457.031 904.684 3459.412 904.684 3462.349 L 904.684 3487.165 C 904.684 3490.102 906.982 3492.483 909.816 3492.483 L 911.526 3492.483 Z  M 897.842 3484.506 L 897.842 3473.871 C 897.841 3473.635 897.931 3473.409 898.092 3473.243 C 898.252 3473.076 898.47 3472.983 898.697 3472.984 C 899.171 3472.984 899.553 3473.38 899.553 3473.871 L 899.553 3484.506 C 899.553 3484.996 899.17 3485.392 898.697 3485.392 C 898.225 3485.392 897.842 3484.996 897.842 3484.506 Z  M 897.842 3468.553 L 897.842 3465.008 C 897.841 3464.772 897.931 3464.546 898.092 3464.38 C 898.252 3464.214 898.47 3464.121 898.697 3464.121 C 899.171 3464.121 899.553 3464.517 899.553 3465.008 L 899.553 3468.553 C 899.553 3469.042 899.17 3469.439 898.697 3469.439 C 898.225 3469.439 897.842 3469.042 897.842 3468.553 Z  M 901.263 3484.506 L 901.263 3473.871 C 901.262 3473.635 901.352 3473.409 901.513 3473.243 C 901.673 3473.076 901.891 3472.983 902.118 3472.984 C 902.592 3472.984 902.974 3473.38 902.974 3473.871 L 902.974 3484.506 C 902.974 3484.996 902.591 3485.392 902.118 3485.392 C 901.646 3485.392 901.263 3484.996 901.263 3484.506 Z  M 901.263 3468.553 L 901.263 3465.008 C 901.262 3464.772 901.352 3464.546 901.513 3464.38 C 901.673 3464.214 901.891 3464.121 902.118 3464.121 C 902.592 3464.121 902.974 3464.517 902.974 3465.008 L 902.974 3468.553 C 902.974 3469.042 902.591 3469.439 902.118 3469.439 C 901.646 3469.439 901.263 3469.042 901.263 3468.553 Z " fill="rgb(71,136,199)"/><path d=" M 926.079 3460.098 C 926.093 3457.958 927.737 3456.212 929.802 3456.145 C 931.728 3456.091 933.391 3457.531 933.684 3459.504 L 938.005 3488.799 C 938.039 3489.007 938.053 3489.207 938.053 3489.409 C 938.053 3491.534 936.382 3493.307 934.331 3493.362 C 932.403 3493.415 930.739 3491.973 930.448 3489.997 L 926.126 3460.7 C 926.091 3460.5 926.079 3460.3 926.079 3460.098 Z " fill="rgb(234,162,53)"/><path d=" M 937.198 3489.409 C 937.198 3491.057 935.901 3492.435 934.311 3492.476 C 932.814 3492.516 931.521 3491.398 931.291 3489.865 L 926.967 3460.569 C 926.948 3460.41 926.933 3460.25 926.933 3460.098 C 926.947 3458.438 928.219 3457.083 929.82 3457.024 C 931.32 3456.983 932.615 3458.105 932.841 3459.642 L 937.164 3488.93 C 937.185 3489.089 937.196 3489.249 937.198 3489.409 Z  M 938.908 3489.409 C 938.907 3489.161 938.889 3488.914 938.855 3488.668 L 934.531 3459.371 C 934.173 3456.955 932.139 3455.191 929.781 3455.252 C 928.438 3455.29 927.175 3455.924 926.314 3456.993 C 925.452 3458.062 925.075 3459.462 925.277 3460.839 L 929.6 3490.136 C 929.959 3492.553 931.999 3494.316 934.358 3494.248 C 936.887 3494.172 938.9 3492.03 938.908 3489.409 Z " fill="rgb(227,138,3)"/></g></g><g><rect x="866.167" y="3464.583" width="30" height="19.667" transform="matrix(0,1,-1,0,4355.583,2593.25)" fill="rgb(116,116,116)"/><rect x="871.167" y="3464.583" width="20" height="19.667" transform="matrix(0,1,-1,0,4355.583,2593.25)" fill="rgb(84,183,183)"/></g></g></svg>